<?xml version="1.0" encoding="utf-8"?>
<!-- Generator: Adobe Illustrator 22.1.0, SVG Export Plug-In . SVG Version: 6.00 Build 0)  -->
<svg version="1.1" id="Layer_1" xmlns:sketch="http://www.bohemiancoding.com/sketch/ns"
	 xmlns="http://www.w3.org/2000/svg" xmlns:xlink="http://www.w3.org/1999/xlink" x="0px" y="0px" viewBox="0 0 145 145"
	 style="enable-background:new 0 0 145 145;" xml:space="preserve">
<style type="text/css">
	.st0{fill:#ED2C88;}
	.st1{fill:#CD0F7E;}
	.st2{fill:#B31776;}
	.st3{fill:#9B2073;}
	.st4{fill:#8F2475;}
	.st5{fill:#78327A;}
	.st6{fill:#6E4D9B;}
	.st7{fill:url(#Shape_21_);}
	.st8{fill:url(#Shape_22_);}
	.st9{fill:url(#Shape_23_);}
	.st10{fill:url(#Shape_24_);}
	.st11{fill:url(#Shape_25_);}
	.st12{fill:url(#Shape_26_);}
	.st13{fill:url(#Shape_27_);}
	.st14{fill:#714896;}
	.st15{fill:#6F4795;}
	.st16{fill:#88519F;}
	.st17{fill:#85509E;}
	.st18{fill:#8D166A;}
	.st19{fill:#A70D6F;}
	.st20{fill:#9E61AD;}
	.st21{fill:#8053A3;}
	.st22{fill:url(#Shape_28_);}
</style>
<title>logo</title>
<desc>Created with Sketch.</desc>
<g id="Main-Navigation" sketch:type="MSPage">
	<g id="Main-Navigation---Home" transform="translate(-34.000000, -17.000000)" sketch:type="MSArtboardGroup">
		<g id="Main-Nav" sketch:type="MSLayerGroup">
			<g id="logo" transform="translate(30.000000, 14.000000)" sketch:type="MSShapeGroup">
				<g id="Aurelia_Logo_Color_RGB">
					<g id="Full-Logo" transform="translate(0.131960, 0.021427)">
						<g id="Aurelia" transform="translate(50.929505, 11.290297)">
							<g id="A" transform="translate(0.076673, 8.413465)">
								<path id="Shape" class="st0" d="M8.8,68c0.1,0,0.2,0,0.3,0c0.2,0,0.5,0,0.7-0.1c0.7-0.1,1.4-0.3,2.1-0.6
									c0.8-0.4,1.6-0.9,2.2-1.5c0.6-0.6,1.1-1.3,1.5-2c0.3-0.6,0.6-1.3,0.7-2c0.2-0.8,0.2-1.7,0.1-2.6c-0.1-0.8-0.3-1.6-0.7-2.3
									c-0.4-0.8-0.9-1.6-1.6-2.2c-0.7-0.7-1.5-1.2-2.4-1.6c-0.5-0.2-1-0.4-1.5-0.5c-0.5-0.1-1-0.2-1.5-0.2c-0.5,0-1,0-1.4,0.1
									c-0.5,0.1-1.1,0.2-1.6,0.4C5,53.5,4.2,54,3.5,54.6c-0.7,0.6-1.2,1.4-1.7,2.2c-0.4,0.7-0.6,1.5-0.7,2.3C1,60,1,60.9,1.2,61.8
									c0.1,0.7,0.4,1.4,0.7,2.1c0.4,0.7,0.9,1.4,1.5,2C4,66.4,4.7,67,5.5,67.3c0.6,0.3,1.3,0.5,2,0.6C7.8,68,8,68,8.2,68
									c0.1,0,0.3,0,0.4,0C8.7,68,8.7,68,8.8,68L8.8,68z M16.9,63.7c-0.1,0.2-0.2,0.4-0.3,0.6c-0.4,0.9-1,1.7-1.8,2.3
									c-0.7,0.7-1.5,1.2-2.4,1.6c-0.7,0.3-1.5,0.6-2.3,0.7C9.9,69,9.6,69,9.3,69c-0.1,0-0.3,0-0.4,0c0,0-0.1,0-0.1,0
									c-0.1,0-0.3,0-0.4,0c-0.3,0-0.6,0-0.8-0.1c-0.8-0.1-1.6-0.3-2.3-0.7c-0.9-0.4-1.7-1-2.4-1.6C2.1,66,1.5,65.2,1,64.3
									c-0.4-0.7-0.6-1.5-0.8-2.3C0,61.1,0,60.1,0.1,59.1c0.1-0.9,0.4-1.7,0.7-2.5c0.4-1,1.1-1.8,1.8-2.6c0.8-0.8,1.7-1.4,2.7-1.8
									C5.9,52,6.5,51.9,7,51.7c0.6-0.1,1.1-0.2,1.7-0.2c0.6,0,1.1,0,1.7,0.2c0.6,0.1,1.1,0.3,1.7,0.5c1,0.4,1.9,1,2.7,1.8
									c0.7,0.7,1.4,1.6,1.8,2.5c0.1,0.1,0.1,0.3,0.2,0.4v-5.3h1V69h-1V63.7L16.9,63.7z"/>
							</g>
							<g id="U" transform="translate(20.353901, 8.413465)">
								<path id="Shape_1_" class="st1" d="M16.5,64.3c-0.4,0.7-0.8,1.4-1.4,1.9c-0.5,0.5-1,0.9-1.5,1.3c-0.6,0.4-1.3,0.7-2,1
									c-0.6,0.2-1.2,0.3-1.8,0.4c-0.2,0-0.4,0-0.6,0.1c-0.1,0-0.2,0-0.3,0c0,0-0.1,0-0.1,0c-0.1,0-0.2,0-0.3,0C8.2,69,8,69,7.7,69
									c-0.7-0.1-1.4-0.3-2.1-0.5c-1-0.4-1.9-0.9-2.7-1.6c-0.6-0.5-1.1-1.1-1.5-1.7C1,64.5,0.7,63.7,0.4,63
									c-0.2-0.6-0.3-1.2-0.4-1.8c0-0.3,0-0.6,0-0.9v-8.7h1v8.7v0.1v0.1c0,0.1,0,0.2,0,0.3c0,0.2,0,0.5,0.1,0.7
									c0.1,0.6,0.3,1.3,0.5,1.9C2,64.2,2.5,65,3.2,65.6c0.6,0.7,1.4,1.2,2.2,1.6c0.7,0.4,1.5,0.6,2.3,0.7c0.8,0.1,1.6,0.1,2.5,0
									c0.6-0.1,1.3-0.3,1.9-0.6c0.8-0.4,1.6-0.9,2.3-1.6c0.6-0.6,1.1-1.4,1.5-2.2c0.3-0.7,0.5-1.4,0.7-2.1c0-0.3,0.1-0.6,0.1-0.8
									c0-0.1,0-0.3,0-0.4v0l0-8.7h1V69h-1V64.3L16.5,64.3z"/>
							</g>
							<g id="R" transform="translate(40.314297, 8.413465)">
								<path id="Shape_2_" class="st2" d="M1.1,59.9L1,69h-1V51.6h1v4.5c0.1-0.2,0.3-0.4,0.4-0.7c0.4-0.6,0.9-1.1,1.4-1.6
									c0.8-0.7,1.6-1.2,2.6-1.6c0.7-0.3,1.4-0.5,2.2-0.6c0.3,0,0.5-0.1,0.8-0.1c0.1,0,0.3,0,0.4,0l0,1c0,0-0.1,0-0.1,0
									c0,0-0.1,0-0.1,0c-0.1,0-0.2,0-0.3,0c-0.2,0-0.5,0-0.7,0.1c-0.6,0.1-1.3,0.3-1.9,0.5c-0.8,0.4-1.6,0.8-2.2,1.5
									c-0.5,0.4-0.9,0.9-1.2,1.4c-0.3,0.5-0.6,1.1-0.8,1.7c-0.1,0.4-0.2,0.9-0.3,1.3C1.1,59.4,1.1,59.7,1.1,59.9L1.1,59.9z"/>
							</g>
							<g id="E" transform="translate(48.393505, 8.413465)">
								<path id="Shape_3_" class="st3" d="M9.4,69.1l-0.6,0c0,0-0.1,0-0.1,0c-0.1,0-0.2,0-0.3,0c-0.2,0-0.5,0-0.7-0.1
									c-0.7-0.1-1.3-0.3-1.9-0.5c-1-0.4-2-1-2.8-1.8C2.1,66,1.5,65.1,1,64.1c-0.4-0.7-0.6-1.5-0.7-2.3c-0.2-0.9-0.2-1.9,0-2.9
									c0.2-1,0.5-2,1-2.9c0.5-1,1.3-1.8,2.2-2.6c0.5-0.4,1-0.7,1.5-1c0.5-0.3,1-0.5,1.5-0.6c0.8-0.2,1.5-0.3,2.3-0.3
									c0.9,0,1.8,0.1,2.6,0.4c0.9,0.3,1.8,0.7,2.7,1.3c0.8,0.6,1.6,1.4,2.2,2.3c0.4,0.6,0.7,1.2,0.9,1.8c0.2,0.7,0.4,1.4,0.5,2.1
									c0,0.2,0,0.4,0,0.7c0,0.1,0,0.1,0,0.2c0,0,0,0.1,0,0.1c0,0,0,0,0,0.1c0,0.1,0,0.1-0.1,0.2c-0.1,0.1-0.2,0.2-0.3,0.2
									c0,0-0.1,0-0.1,0c0,0,0,0-0.1,0h-8v-1h7.5c0-0.3,0-0.5-0.1-0.8c-0.1-0.5-0.2-1.1-0.4-1.6c-0.3-0.7-0.7-1.4-1.2-2
									c-0.6-0.7-1.2-1.3-2-1.7c-0.6-0.4-1.3-0.7-2-0.9c-0.8-0.2-1.7-0.3-2.6-0.2c-0.4,0-0.8,0.1-1.2,0.2c-0.4,0.1-0.9,0.3-1.3,0.4
									c-0.9,0.4-1.7,0.9-2.4,1.6c-0.3,0.3-0.6,0.7-0.9,1c-0.3,0.5-0.6,1-0.8,1.5c-0.2,0.5-0.4,1.1-0.5,1.7
									c-0.1,0.5-0.1,0.9-0.1,1.4c0,0.5,0.1,1.1,0.2,1.6c0.1,0.6,0.4,1.2,0.6,1.7c0.3,0.6,0.7,1.2,1.1,1.7c0.4,0.5,0.9,0.9,1.4,1.2
									c0.4,0.3,0.8,0.5,1.3,0.7c0.5,0.2,1,0.4,1.5,0.5c0.3,0.1,0.7,0.1,1,0.1c0.2,0,0.4,0,0.5,0l0.6,0C9.4,68.4,9.4,68.7,9.4,69.1
									L9.4,69.1z"/>
							</g>
							<g id="L" transform="translate(68.512317, 0.017426)">
								<path id="Shape_4_" class="st4" d="M5.2,77.4c-0.2,0-0.3,0-0.5,0c-0.3,0-0.7-0.1-1-0.1c-0.3-0.1-0.7-0.2-1-0.3
									c-0.4-0.2-0.8-0.4-1.1-0.7c-0.2-0.1-0.3-0.3-0.5-0.5c-0.2-0.2-0.3-0.4-0.5-0.7c-0.2-0.3-0.3-0.6-0.4-1
									c-0.1-0.2-0.1-0.5-0.2-0.8c0-0.2,0-0.4,0-0.6V51.6h1v21.2v0.1c0,0.1,0,0.3,0,0.4c0,0.2,0.1,0.4,0.1,0.7
									c0.1,0.3,0.2,0.5,0.3,0.7c0.1,0.2,0.2,0.3,0.4,0.5c0.1,0.1,0.2,0.2,0.4,0.3c0.1,0.1,0.2,0.2,0.3,0.2
									c0.1,0.1,0.2,0.1,0.3,0.2c0.5,0.3,1,0.4,1.6,0.5c0.2,0,0.5,0,0.7,0C5.2,76.8,5.2,77.1,5.2,77.4L5.2,77.4z"/>
							</g>
							<g id="I" transform="translate(75.957861, 0.017426)">
								<path id="Shape_5_" class="st5" d="M0.1,77.4V60h1v17.4H0.1L0.1,77.4z M0.2,54v-2.3h1V54H0.2L0.2,54z"/>
							</g>
							<g id="A1" transform="translate(79.601426, 8.413465)">
								<path id="Shape_6_" class="st6" d="M8.8,68c0.1,0,0.2,0,0.3,0c0.2,0,0.5,0,0.7-0.1c0.7-0.1,1.4-0.3,2.1-0.6
									c0.7-0.3,1.4-0.8,2-1.3c0.7-0.6,1.2-1.3,1.7-2.1c0.3-0.6,0.6-1.3,0.7-2c0.2-0.9,0.2-1.8,0.1-2.6c-0.1-0.8-0.3-1.6-0.7-2.3
									c-0.4-0.8-0.9-1.6-1.6-2.2c-0.7-0.7-1.5-1.2-2.4-1.6c-0.5-0.2-1-0.3-1.5-0.5c-0.5-0.1-1-0.2-1.5-0.2s-1,0-1.5,0.1
									c-0.5,0.1-1,0.2-1.5,0.4C5,53.5,4.2,54,3.5,54.7c-0.7,0.6-1.2,1.4-1.6,2.2c-0.3,0.7-0.6,1.5-0.7,2.3C1,60,1,60.9,1.2,61.8
									c0.1,0.7,0.4,1.5,0.7,2.1c0.4,0.7,0.9,1.4,1.5,2c0.6,0.6,1.3,1.1,2.1,1.4c0.6,0.3,1.3,0.5,2,0.6C7.9,68,8.1,68,8.3,68
									c0.1,0,0.2,0,0.3,0C8.7,68,8.8,68,8.8,68L8.8,68z M16.9,63.7c-0.1,0.2-0.2,0.4-0.3,0.6c-0.5,0.9-1.1,1.7-1.8,2.4
									c-0.7,0.7-1.5,1.2-2.4,1.6c-0.7,0.3-1.5,0.6-2.3,0.7C9.7,69,9.5,69,9.2,69c-0.1,0-0.3,0-0.4,0c-0.1,0-0.3,0-0.4,0
									c-0.3,0-0.6,0-0.8-0.1c-0.8-0.1-1.6-0.3-2.3-0.7c-0.9-0.4-1.8-1-2.5-1.7C2.1,66,1.5,65.2,1,64.3c-0.4-0.7-0.6-1.5-0.8-2.3
									C0,61,0,60.1,0.1,59.1c0.1-0.9,0.4-1.8,0.8-2.6c0.5-1,1.1-1.8,1.8-2.5c0.8-0.8,1.7-1.4,2.7-1.8C6,52,6.6,51.8,7.1,51.7
									c0.5-0.1,1.1-0.2,1.7-0.2c0.6,0,1.1,0.1,1.7,0.2c0.6,0.1,1.2,0.3,1.7,0.5c1,0.4,1.9,1,2.7,1.8c0.7,0.7,1.4,1.6,1.8,2.5
									c0.1,0.1,0.1,0.3,0.2,0.4v-5.3h1V69c0,0-1,0-1,0V63.7L16.9,63.7z"/>
							</g>
						</g>
						
							<g id="Icon" transform="translate(25.107283, 24.232006) rotate(11.283864) translate(-25.107283, -24.232006) translate(4.607283, 3.732006)">
							
								<g id="Group" transform="translate(20.579716, 5.528144) rotate(-11.283864) translate(-20.579716, -5.528144) translate(16.540110, 1.092499)">
								
									<linearGradient id="Shape_21_" gradientUnits="userSpaceOnUse" x1="-226.5059" y1="426.3774" x2="-220.2476" y2="420.6316" gradientTransform="matrix(7.8859 0 0 -8.5893 1763.8945 3691.8359)">
									<stop  offset="0" style="stop-color:#C06FBB"/>
									<stop  offset="1" style="stop-color:#6E4D9B"/>
								</linearGradient>
								<path id="Shape_7_" class="st7" d="M8,57.6l-3.9,2.6l-4-6L4,51.6L8,57.6L8,57.6z"/>
							</g>
							
								<g id="Group_1_" transform="translate(31.488859, 30.245267) rotate(-11.283864) translate(-31.488859, -30.245267) translate(23.568064, 21.690808)">
								
									<linearGradient id="Shape_22_" gradientUnits="userSpaceOnUse" x1="-239.6038" y1="422.2039" x2="-241.3038" y2="424.5251" gradientTransform="matrix(15.7008 0 0 -16.9564 3773.7605 7224.8267)">
									<stop  offset="0" style="stop-color:#6E4D9B"/>
									<stop  offset="0.14" style="stop-color:#77327A"/>
									<stop  offset="0.29" style="stop-color:#B31777"/>
									<stop  offset="0.84" style="stop-color:#CD0F7E"/>
									<stop  offset="1" style="stop-color:#ED2C89"/>
								</linearGradient>
								<path id="Shape_8_" class="st8" d="M9.2,53.4l6.6,9.9l-7.9,5.3l-6.6-9.9l-1.2-1.7L8,51.7L9.2,53.4L9.2,53.4z"/>
							</g>
							
								<g id="Group_2_" transform="translate(20.582001, 34.683017) rotate(-11.283864) translate(-20.582001, -34.683017) translate(16.146356, 30.564203)">
								
									<linearGradient id="Shape_23_" gradientUnits="userSpaceOnUse" x1="-224.2918" y1="397.3262" x2="-218.5776" y2="389.3731" gradientTransform="matrix(8.6368 0 0 -7.9404 1901.3628 3159.054)">
									<stop  offset="0" style="stop-color:#C06FBB"/>
									<stop  offset="1" style="stop-color:#6E4D9B"/>
								</linearGradient>
								<path id="Shape_9_" class="st9" d="M7.3,53.4l1.5,2.2l-6,4l-2.6-3.9l1.3-0.9l4.7-3.1L7.3,53.4L7.3,53.4z"/>
							</g>
							
								<g id="Group_3_" transform="translate(35.128399, 20.149849) rotate(-11.283864) translate(-35.128399, -20.149849) translate(31.801665, 16.823115)">
								
									<linearGradient id="Shape_24_" gradientUnits="userSpaceOnUse" x1="-236.754" y1="397.5262" x2="-227.5223" y2="389.9534" gradientTransform="matrix(6.5038 0 0 -6.5171 1492.7534 2604.0391)">
									<stop  offset="0" style="stop-color:#C06FBB"/>
									<stop  offset="1" style="stop-color:#6E4D9B"/>
								</linearGradient>
								<path id="Shape_10_" class="st10" d="M2.3,52.6L4,51.5l2.6,3.9L2.8,58l-1.5-2.2l2.2-1.5L2.3,52.6L2.3,52.6z M1.3,55.8
									l-1.2-1.7l2.2-1.5l1.2,1.7L1.3,55.8L1.3,55.8z"/>
							</g>
							
								<g id="Group_4_" transform="translate(6.048834, 20.136618) rotate(-11.283864) translate(-6.048834, -20.136618) translate(0.979525, 15.067310)">
								
									<linearGradient id="Shape_25_" gradientUnits="userSpaceOnUse" x1="-213.7799" y1="420.8193" x2="-208.1862" y2="415.8903" gradientTransform="matrix(10.0196 0 0 -10.0127 2122.3401 4248.3052)">
									<stop  offset="0" style="stop-color:#C06FBB"/>
									<stop  offset="1" style="stop-color:#6E4D9B"/>
								</linearGradient>
								<path id="Shape_11_" class="st11" d="M5.3,60.7L4,61.5l-4-6l6-4l2.8,4.2l-4.7,3.1l4.7-3.1l1.2,1.8L5.3,60.7L5.3,60.7z"/>
							</g>
							
								<g id="Group_5_" transform="translate(11.303905, 10.041936) rotate(-11.283864) translate(-11.303905, -10.041936) translate(3.383110, 1.487477)">
								
									<linearGradient id="Shape_26_" gradientUnits="userSpaceOnUse" x1="-222.5215" y1="444.2531" x2="-224.2287" y2="446.5886" gradientTransform="matrix(15.6776 0 0 -16.9217 3519.437 7611.4126)">
									<stop  offset="0" style="stop-color:#6E4D9B"/>
									<stop  offset="0.14" style="stop-color:#77327A"/>
									<stop  offset="0.29" style="stop-color:#B31777"/>
									<stop  offset="0.84" style="stop-color:#CD0F7E"/>
									<stop  offset="1" style="stop-color:#ED2C89"/>
								</linearGradient>
								<path id="Shape_12_" class="st12" d="M14.5,61.4l1.2,1.8l-7.9,5.3l-1.2-1.8l-6.6-9.9L8,51.6L14.5,61.4L14.5,61.4z"/>
							</g>
							
								<g id="Group_6_" transform="translate(20.657410, 5.510276) rotate(-11.283864) translate(-20.657410, -5.510276) translate(16.617804, 1.153838)">
								
									<linearGradient id="Shape_27_" gradientUnits="userSpaceOnUse" x1="-226.3254" y1="426.6416" x2="-220.0677" y2="419.7132" gradientTransform="matrix(7.8867 0 0 -8.5893 1764.6438 3691.0989)">
									<stop  offset="0" style="stop-color:#C06FBB"/>
									<stop  offset="1" style="stop-color:#6E4D9B"/>
								</linearGradient>
								<path id="Shape_13_" class="st13" d="M6.2,58.7L4,60.1l-1.2-1.8L0,54.1l3.9-2.6l4,6L6.2,58.7L6.2,58.7z"/>
							</g>
							
								<g id="Group_7_" transform="translate(20.272029, 33.129480) rotate(-11.283864) translate(-20.272029, -33.129480) translate(17.262126, 30.594825)">
								<path id="Shape_14_" class="st14" d="M1.2,56.5L0,54.8l4.7-3.1l1.2,1.7L1.2,56.5L1.2,56.5z"/>
							</g>
							
								<g id="Group_8_" transform="translate(33.544049, 19.900585) rotate(-11.283864) translate(-33.544049, -19.900585) translate(31.722266, 18.237218)">
								<path id="Shape_15_" class="st15" d="M1.3,54.7L0.1,53l2.2-1.5l1.2,1.7L1.3,54.7L1.3,54.7z"/>
							</g>
							
								<g id="Group_9_" transform="translate(8.378404, 21.287191) rotate(-11.283864) translate(-8.378404, -21.287191) translate(5.368502, 18.752537)">
								<path id="Shape_16_" class="st16" d="M1.2,56.5L0,54.7l4.7-3.1l1.2,1.8L1.2,56.5L1.2,56.5z"/>
							</g>
							
								<g id="Group_10_" transform="translate(21.634925, 7.980620) rotate(-11.283864) translate(-21.634925, -7.980620) translate(19.813143, 6.238045)">
								<path id="Shape_17_" class="st17" d="M1.3,54.9l-1.2-1.8l2.2-1.5l1.2,1.8L1.3,54.9L1.3,54.9z"/>
							</g>
							
								<g id="Group_11_" transform="translate(27.265517, 26.080244) rotate(-11.283864) translate(-27.265517, -26.080244) translate(22.671456, 22.436678)">
								<path id="Shape_18_" class="st18" d="M9.2,53.4l-7.9,5.3l-1.2-1.7L8,51.7L9.2,53.4L9.2,53.4z"/>
							</g>
							
								<g id="Group_12_" transform="translate(15.449570, 14.222457) rotate(-11.283864) translate(-15.449570, -14.222457) translate(10.776301, 10.578891)">
								<path id="Shape_19_" class="st19" d="M8,51.6l1.2,1.8l-7.9,5.3l-1.2-1.8L8,51.6L8,51.6z"/>
							</g>
							
								<g id="Group_13_" transform="translate(2.374683, 13.681530) rotate(45.000000) translate(-2.374683, -13.681530) translate(1.022317, 12.329163)">
								
									<rect id="Rectangle-path" x="42.8" y="28.6" transform="matrix(2.530704e-06 1 -1 2.530704e-06 74.1124 -14.2511)" class="st20" width="2.7" height="2.7"/>
							</g>
							
								<g id="Group_14_" transform="translate(15.523201, 38.394406) rotate(45.000000) translate(-15.523201, -38.394406) translate(14.170834, 37.042039)">
								
									<rect id="Rectangle-path_1_" x="42.8" y="28.6" transform="matrix(2.530704e-06 1 -1 2.530704e-06 74.1124 -14.2511)" class="st21" width="2.7" height="2.7"/>
							</g>
							
								<g id="Group_15_" transform="translate(21.322504, 21.047653) rotate(0.000000) translate(-21.322504, -21.047653) translate(1.822504, 1.547653)">
								
									<linearGradient id="Shape_28_" gradientUnits="userSpaceOnUse" x1="-136.9451" y1="497.6089" x2="-136.1555" y2="498.3897" gradientTransform="matrix(37.6274 -7.4772 -7.5077 -37.4744 8902.8564 17708.1719)">
									<stop  offset="0" style="stop-color:#6E4D9B"/>
									<stop  offset="0.14" style="stop-color:#77327A"/>
									<stop  offset="0.53" style="stop-color:#B31777"/>
									<stop  offset="0.79" style="stop-color:#CD0F7E"/>
									<stop  offset="1" style="stop-color:#ED2C89"/>
								</linearGradient>
								<path id="Shape_20_" class="st22" d="M18.4,88.8l-8.4-8.4l29.7-29.8l8.6,8.2L18.4,88.8L18.4,88.8z"/>
							</g>
						</g>
					</g>
				</g>
			</g>
		</g>
	</g>
</g>
</svg>
