<svg xmlns="http://www.w3.org/2000/svg" viewBox="0 0 200 100"><defs><style>.cls-1{fill:#161616;}.cls-2{fill:#29a5de;}</style></defs><title>logo-sickweather</title><path class="cls-1" d="M5.81,83.15a5.22,5.22,0,0,1,.54-2.37,5.77,5.77,0,0,1,1.47-1.86,6.88,6.88,0,0,1,2.25-1.18,9.35,9.35,0,0,1,2.85-.42,9.71,9.71,0,0,1,2.42.38,8.32,8.32,0,0,1,2,.93,5.52,5.52,0,0,1,1.75,1.81,2.42,2.42,0,0,1,.29,1A1.5,1.5,0,0,1,19,82.52a1.4,1.4,0,0,1-1.06.46,1.62,1.62,0,0,1-1.29-.66,5.82,5.82,0,0,0-1.58-1.4,4.45,4.45,0,0,0-2.13-.43,4.8,4.8,0,0,0-2.87.77A2.26,2.26,0,0,0,9,83.15a2.42,2.42,0,0,0,1,2.18,5.22,5.22,0,0,0,2.91.69,10.3,10.3,0,0,1,2.92.4,7.13,7.13,0,0,1,2.39,1.18,5.82,5.82,0,0,1,1.62,2,5.72,5.72,0,0,1,.61,2.7A5.81,5.81,0,0,1,19.85,95a5.6,5.6,0,0,1-1.66,2,7.17,7.17,0,0,1-2.46,1.16,11.26,11.26,0,0,1-2.93.38c-.22,0-.63,0-1.23-.11a6.8,6.8,0,0,1-2-.56,8.45,8.45,0,0,1-2.18-1.39,7.23,7.23,0,0,1-1.85-2.6,1.4,1.4,0,0,1-.13-.59,1.6,1.6,0,0,1,.44-1.1A1.47,1.47,0,0,1,7,91.68a1.46,1.46,0,0,1,.88.27,1.83,1.83,0,0,1,.58.73,4,4,0,0,0,1.83,2,5.42,5.42,0,0,0,2.62.7,9.25,9.25,0,0,0,1.69-.14A4,4,0,0,0,16,94.7a2.79,2.79,0,0,0,.94-1,2.82,2.82,0,0,0,.35-1.48A2.46,2.46,0,0,0,16,89.83a6.77,6.77,0,0,0-3.1-.65,12.27,12.27,0,0,1-2.85-.31,5.83,5.83,0,0,1-2.25-1A5.07,5.07,0,0,1,6.35,86,6.55,6.55,0,0,1,5.81,83.15Z"/><path class="cls-1" d="M22.87,72.29a1.52,1.52,0,0,1,.46-1.13,1.54,1.54,0,0,1,1.12-.46,1.58,1.58,0,0,1,1.11.46A1.53,1.53,0,0,1,26,72.29v1.2a1.58,1.58,0,0,1-2.68,1.13,1.5,1.5,0,0,1-.48-1.13Zm0,6.61a1.52,1.52,0,0,1,.46-1.12,1.5,1.5,0,0,1,1.12-.46,1.54,1.54,0,0,1,1.11.46A1.53,1.53,0,0,1,26,78.9v18a1.57,1.57,0,0,1-2.68,1.12,1.48,1.48,0,0,1-.48-1.12Z"/><path class="cls-1" d="M28.7,84.81a7.27,7.27,0,0,1,.6-3A7,7,0,0,1,31,79.49a8,8,0,0,1,2.45-1.59,7.8,7.8,0,0,1,3-.58c.19,0,.57,0,1.14.11a6.76,6.76,0,0,1,1.9.56,7.63,7.63,0,0,1,2.06,1.39A7,7,0,0,1,43.18,82a1.86,1.86,0,0,1,.13.59,1.54,1.54,0,0,1-.46,1.12,1.52,1.52,0,0,1-1.12.46,1.54,1.54,0,0,1-.9-.27,1.51,1.51,0,0,1-.56-.73,4.71,4.71,0,0,0-1.67-2,4.24,4.24,0,0,0-2.37-.7,4.42,4.42,0,0,0-1.71.33,4.35,4.35,0,0,0-1.39.93,4.6,4.6,0,0,0-.94,1.4,4.28,4.28,0,0,0-.33,1.66V91a4.12,4.12,0,0,0,.35,1.66,5,5,0,0,0,.94,1.4,4,4,0,0,0,1.4.93,4.41,4.41,0,0,0,1.68.33,4.29,4.29,0,0,0,4-2.66,1.83,1.83,0,0,1,.58-.73,1.46,1.46,0,0,1,.88-.27,1.5,1.5,0,0,1,1.12.48,1.5,1.5,0,0,1,.33,1.69,7.54,7.54,0,0,1-2,2.79A8.38,8.38,0,0,1,38.92,98a6.52,6.52,0,0,1-1.88.46l-.81,0a7.48,7.48,0,0,1-5.31-2.19,7.77,7.77,0,0,1-1.62-2.39A7.22,7.22,0,0,1,28.7,91Z"/><path class="cls-1" d="M45.72,72.7a1.57,1.57,0,0,1,1.58-1.58,1.54,1.54,0,0,1,1.11.46,1.51,1.51,0,0,1,.47,1.12V84.48L57,77.9a1.49,1.49,0,0,1,1-.37A1.54,1.54,0,0,1,59.1,78a1.47,1.47,0,0,1,.48,1.14A1.63,1.63,0,0,1,59,80.36l-6.7,5.41,8.41,10.16a1.43,1.43,0,0,1,.41,1,1.59,1.59,0,0,1-1.58,1.54A1.64,1.64,0,0,1,58.33,98L49.88,87.73l-1,.79v8.41a1.57,1.57,0,0,1-2.68,1.12,1.48,1.48,0,0,1-.48-1.12Z"/><path class="cls-1" d="M62.12,78.9a1.5,1.5,0,0,1,.48-1.12,1.57,1.57,0,0,1,2.68,1.12V91a4.54,4.54,0,0,0,1.09,3.06,3.94,3.94,0,0,0,5.78,0,4.71,4.71,0,0,0,1-3.06V78.9a1.5,1.5,0,0,1,.48-1.12,1.57,1.57,0,0,1,2.68,1.12V91a4.54,4.54,0,0,0,1.09,3.06,3.6,3.6,0,0,0,2.87,1.26,3.56,3.56,0,0,0,2.91-1.26,4.65,4.65,0,0,0,1-3.06V78.9a1.5,1.5,0,0,1,.48-1.12,1.58,1.58,0,0,1,2.23,0,1.56,1.56,0,0,1,.46,1.12V91a8.33,8.33,0,0,1-.52,2.91,7.23,7.23,0,0,1-1.48,2.39,6.89,6.89,0,0,1-5.12,2.19,6.61,6.61,0,0,1-3.16-.75,7.34,7.34,0,0,1-2.38-2,7.41,7.41,0,0,1-2.37,2,6.64,6.64,0,0,1-3.16.75,7,7,0,0,1-2.85-.58,6.66,6.66,0,0,1-2.25-1.61,7.58,7.58,0,0,1-1.48-2.39A7.91,7.91,0,0,1,62.12,91Z"/><path class="cls-1" d="M90,84.81a7.39,7.39,0,0,1,2.2-5.3,7.85,7.85,0,0,1,2.4-1.61,7.54,7.54,0,0,1,8.24,1.61,7.77,7.77,0,0,1,1.62,2.39,7.22,7.22,0,0,1,.6,2.91V88a1.55,1.55,0,0,1-1.58,1.58H93.17V91a4.12,4.12,0,0,0,.35,1.66,5,5,0,0,0,.94,1.4,4,4,0,0,0,1.39.93,4.5,4.5,0,0,0,1.69.33,4.25,4.25,0,0,0,2.39-.68,4.38,4.38,0,0,0,1.61-1.85l0-.13a1.51,1.51,0,0,1,.56-.73,1.53,1.53,0,0,1,.89-.27,1.5,1.5,0,0,1,1.13.48,1.58,1.58,0,0,1,.46,1.1,1.86,1.86,0,0,1-.21.75,7.51,7.51,0,0,1-2.71,3.25,7.23,7.23,0,0,1-4.16,1.25,7.48,7.48,0,0,1-5.31-2.19,7.77,7.77,0,0,1-1.62-2.39A7.22,7.22,0,0,1,90,91Zm3.16,1.63h8.74V84.81a4.12,4.12,0,0,0-.35-1.66,5,5,0,0,0-.94-1.4,4,4,0,0,0-1.39-.93,4.5,4.5,0,0,0-1.69-.33,4.42,4.42,0,0,0-1.71.33,4.35,4.35,0,0,0-1.39.93,4.42,4.42,0,0,0-.94,1.4,4.28,4.28,0,0,0-.33,1.66Z"/><path class="cls-1" d="M107.32,84.81a7.34,7.34,0,0,1,2.21-5.3,7.8,7.8,0,0,1,2.39-1.61,7.47,7.47,0,0,1,2.93-.58,7.43,7.43,0,0,1,5.31,2.19,7.77,7.77,0,0,1,1.62,2.39,7.07,7.07,0,0,1,.61,2.91v12a1.48,1.48,0,0,1-.48,1.12,1.54,1.54,0,0,1-1.1.46,1.6,1.6,0,0,1-1-.35,1.39,1.39,0,0,1-.52-.9,7.21,7.21,0,0,1-4.42,1.42,7.43,7.43,0,0,1-5.3-2.19,8,8,0,0,1-1.63-2.39,7.22,7.22,0,0,1-.6-2.91ZM110.48,91a4,4,0,0,0,.36,1.66,5,5,0,0,0,.93,1.4,4.09,4.09,0,0,0,1.4.93,4.41,4.41,0,0,0,1.68.33,4.46,4.46,0,0,0,1.67-.31,4.22,4.22,0,0,0,1.37-.87,4.55,4.55,0,0,0,.94-1.31,4.21,4.21,0,0,0,.4-1.63V84.81a4,4,0,0,0-.36-1.66,4.78,4.78,0,0,0-.94-1.4,4,4,0,0,0-1.39-.93,4.43,4.43,0,0,0-1.69-.33,4.29,4.29,0,0,0-4,2.66,4.11,4.11,0,0,0-.34,1.66Z"/><path class="cls-1" d="M125.05,72.7a1.5,1.5,0,0,1,.46-1.12,1.52,1.52,0,0,1,1.12-.46,1.54,1.54,0,0,1,1.11.46,1.48,1.48,0,0,1,.48,1.12v5h8.07a1.57,1.57,0,0,1,1.12,2.68,1.48,1.48,0,0,1-1.12.48h-8.07V91a4,4,0,0,0,.35,1.66,4.78,4.78,0,0,0,.94,1.4,4,4,0,0,0,1.39.93,4.43,4.43,0,0,0,1.69.33,4.29,4.29,0,0,0,4-2.66,1.85,1.85,0,0,1,.59-.73,1.45,1.45,0,0,1,.87-.27,1.48,1.48,0,0,1,1.12.48,1.54,1.54,0,0,1,.46,1.1,1.56,1.56,0,0,1-.12.59,7.66,7.66,0,0,1-2,2.79A8.42,8.42,0,0,1,135.27,98a6.54,6.54,0,0,1-1.87.46l-.81,0a7.43,7.43,0,0,1-5.31-2.19,7.77,7.77,0,0,1-1.62-2.39,7.07,7.07,0,0,1-.61-2.91Z"/><path class="cls-1" d="M141.28,72.7a1.54,1.54,0,0,1,.46-1.12,1.58,1.58,0,0,1,2.23,0,1.48,1.48,0,0,1,.48,1.12v6a7.54,7.54,0,0,1,4.37-1.42,7.52,7.52,0,0,1,2.91.58,7.61,7.61,0,0,1,2.4,1.61,8,8,0,0,1,1.62,2.39,7.22,7.22,0,0,1,.6,2.91V96.93a1.48,1.48,0,0,1-.48,1.12,1.52,1.52,0,0,1-1.1.46,1.57,1.57,0,0,1-1.58-1.58V84.81a4,4,0,0,0-.36-1.66,4.75,4.75,0,0,0-.93-1.4,4.09,4.09,0,0,0-1.4-.93,4.41,4.41,0,0,0-1.68-.33,4.28,4.28,0,0,0-1.69.33,4.83,4.83,0,0,0-1.37.89,4,4,0,0,0-.94,1.31,4.57,4.57,0,0,0-.37,1.63V96.93a1.48,1.48,0,0,1-.48,1.12,1.58,1.58,0,0,1-2.69-1.12Z"/><path class="cls-1" d="M158.14,84.81a7.56,7.56,0,0,1,.58-2.91,7.3,7.3,0,0,1,1.63-2.39,7.8,7.8,0,0,1,2.39-1.61,7.67,7.67,0,0,1,5.85,0A7.57,7.57,0,0,1,171,79.51a8,8,0,0,1,1.63,2.39,7.22,7.22,0,0,1,.6,2.91V88a1.57,1.57,0,0,1-1.58,1.58H161.3V91a4,4,0,0,0,.36,1.66,4.78,4.78,0,0,0,.94,1.4A4,4,0,0,0,164,95a4.43,4.43,0,0,0,1.69.33,4.3,4.3,0,0,0,2.39-.68,4.35,4.35,0,0,0,1.6-1.85l0-.13a1.51,1.51,0,0,1,.56-.73,1.59,1.59,0,0,1,.9-.27,1.48,1.48,0,0,1,1.12.48,1.54,1.54,0,0,1,.46,1.1,1.86,1.86,0,0,1-.21.75,7.48,7.48,0,0,1-2.7,3.25,7.23,7.23,0,0,1-4.16,1.25,7.43,7.43,0,0,1-5.31-2.19,8,8,0,0,1-1.63-2.39,7.22,7.22,0,0,1-.6-2.91Zm3.16,1.63h8.75V84.81a4,4,0,0,0-.36-1.66,5,5,0,0,0-.93-1.4,4.09,4.09,0,0,0-1.4-.93,4.34,4.34,0,0,0-5.72,2.33,4.29,4.29,0,0,0-.34,1.66Z"/><path class="cls-1" d="M175.79,79.07a1.57,1.57,0,0,1,1.58-1.58,1.55,1.55,0,0,1,1,.35,1.6,1.6,0,0,1,.56.94,7.46,7.46,0,0,1,4.58-1.46,12.54,12.54,0,0,1,2.31.38,5.31,5.31,0,0,1,1.56.73,1.64,1.64,0,0,1,.25,2.49,1.58,1.58,0,0,1-1.12.44,1.65,1.65,0,0,1-1-.29,4.45,4.45,0,0,0-2.21-.58,4.2,4.2,0,0,0-1.68.33,4.6,4.6,0,0,0-1.38.91,4.25,4.25,0,0,0-.93,1.34,4.37,4.37,0,0,0-.38,1.62V96.93a1.57,1.57,0,0,1-1.58,1.58,1.52,1.52,0,0,1-1.1-.46,1.48,1.48,0,0,1-.48-1.12V79.07Z"/><path class="cls-1" d="M191.59,70.53a3.05,3.05,0,0,1,1.47.39,2.8,2.8,0,0,1,1.11,1.1,3,3,0,0,1,.4,1.5,3.06,3.06,0,0,1-.39,1.48,2.8,2.8,0,0,1-1.11,1.1,3,3,0,0,1-3,0A2.8,2.8,0,0,1,189,75a3.06,3.06,0,0,1-.39-1.48A3,3,0,0,1,189,72a2.8,2.8,0,0,1,1.11-1.1A3.05,3.05,0,0,1,191.59,70.53Zm0,.5a2.45,2.45,0,0,0-1.22.32,2.23,2.23,0,0,0-.93.92,2.46,2.46,0,0,0,0,2.48,2.39,2.39,0,0,0,.92.92,2.49,2.49,0,0,0,2.48,0,2.39,2.39,0,0,0,.92-.92,2.47,2.47,0,0,0,.33-1.23,2.55,2.55,0,0,0-.34-1.25,2.23,2.23,0,0,0-.93-.92A2.47,2.47,0,0,0,191.59,71Zm-1.31,4.13V72h1.1a3.13,3.13,0,0,1,.82.08.83.83,0,0,1,.56.78.87.87,0,0,1-.26.62,1,1,0,0,1-.66.29.89.89,0,0,1,.27.17,3.86,3.86,0,0,1,.48.64l.39.62h-.63l-.29-.5a2.46,2.46,0,0,0-.54-.75.7.7,0,0,0-.42-.11h-.3v1.36Zm.52-1.8h.63a1,1,0,0,0,.61-.14.43.43,0,0,0,.17-.35.47.47,0,0,0-.08-.26.5.5,0,0,0-.22-.16,1.51,1.51,0,0,0-.52-.06h-.59Z"/><path class="cls-2" d="M92.22,1.49a17.25,17.25,0,0,1,11.85,4.74,10.25,10.25,0,0,1,4.26-1.47,9.18,9.18,0,0,1,1.17-.07,10.34,10.34,0,0,1,10.26,9.19c0,.32,0,.64.06,1a13.89,13.89,0,0,1,1.28,26.43A15.93,15.93,0,0,1,107.58,52.7a13.76,13.76,0,0,1-1.68.1,17,17,0,0,1-2.37-.18l3.7,13.16L93.92,52.14a14.11,14.11,0,0,1-1.72.33,13.86,13.86,0,0,1-1.43.08,12.85,12.85,0,0,1-9.29-4c-.26,0-.52.1-.79.13a20.59,20.59,0,0,1-2.21.12,19.57,19.57,0,0,1-2.16-39c.4,0,.79,0,1.19-.07A17.19,17.19,0,0,1,90.27,1.6a18.21,18.21,0,0,1,2-.11"/></svg>