<?xml version="1.0" encoding="utf-8"?>
<!-- Generator: Adobe Illustrator 22.1.0, SVG Export Plug-In . SVG Version: 6.00 Build 0)  -->
<svg version="1.1"
	 id="svg2" inkscape:export-filename="/home/thockin/src/kubernetes/kubernetes.png" inkscape:export-xdpi="250.55" inkscape:export-ydpi="250.55" inkscape:version="0.48.4 r9939" sodipodi:docname="name_blue.svg" xmlns:cc="http://creativecommons.org/ns#" xmlns:dc="http://purl.org/dc/elements/1.1/" xmlns:inkscape="http://www.inkscape.org/namespaces/inkscape" xmlns:rdf="http://www.w3.org/1999/02/22-rdf-syntax-ns#" xmlns:sodipodi="http://sodipodi.sourceforge.net/DTD/sodipodi-0.dtd" xmlns:svg="http://www.w3.org/2000/svg"
	 xmlns="http://www.w3.org/2000/svg" xmlns:xlink="http://www.w3.org/1999/xlink" x="0px" y="0px" viewBox="0 0 738.6 738.6"
	 style="enable-background:new 0 0 738.6 738.6;" xml:space="preserve">
<style type="text/css">
	.st0{fill:#326DE5;}
</style>
<sodipodi:namedview  bordercolor="#666666" borderopacity="1.0" fit-margin-bottom="10" fit-margin-left="10" fit-margin-right="10" fit-margin-top="10" id="base" inkscape:current-layer="layer1" inkscape:cx="81.073975" inkscape:cy="-127.68241" inkscape:document-units="px" inkscape:pageopacity="0.0" inkscape:pageshadow="2" inkscape:snap-global="false" inkscape:window-height="822" inkscape:window-maximized="0" inkscape:window-width="1519" inkscape:window-x="25" inkscape:window-y="350" inkscape:zoom="0.75130096" pagecolor="#ffffff" showgrid="false">
	</sodipodi:namedview>
<g id="layer1" transform="translate(-6.1051208,-305.36552)" inkscape:groupmode="layer" inkscape:label="Layer 1">
	<g id="text4373">
		<path id="path2985" class="st0" d="M36.2,680.8c2-2.2,4-4.4,6.1-6.8c2.2-2.3,4.2-4.6,6.2-6.9c2-2.3,3.8-4.5,5.5-6.6
			c1.8-2.1,3.3-3.9,4.6-5.4h23.9c-4.8,5.5-9.5,10.8-14,15.8c-4.5,5-9.5,10.1-14.8,15.4c2.7,2.4,5.5,5.4,8.4,8.8
			c2.9,3.3,5.7,6.8,8.4,10.4c2.7,3.6,5.2,7.2,7.4,10.8c2.2,3.6,4.1,6.9,5.7,9.9H60.4c-1.4-2.3-3.1-4.9-5-7.7
			c-1.8-2.9-3.7-5.7-5.8-8.5c-2.1-2.9-4.3-5.6-6.6-8.2c-2.3-2.6-4.5-4.8-6.8-6.6v31H16.1V624.6l20.1-3.2L36.2,680.8"/>
		<path id="path2987" class="st0" d="M153.4,723.7c-3.4,1-7.8,1.9-13.2,2.7c-5.4,0.9-11.1,1.3-17,1.3c-6,0-11.1-0.8-15.1-2.4
			c-4-1.6-7.1-3.9-9.5-6.8c-2.3-3-4-6.5-5-10.5c-1-4-1.5-8.5-1.5-13.4v-39.6h20.1v37.1c0,6.5,0.9,11.2,2.6,14
			c1.7,2.9,4.9,4.3,9.6,4.3c1.4,0,3,0,4.6-0.1c1.6-0.2,3.1-0.4,4.3-0.5v-54.8h20.1L153.4,723.7"/>
		<path id="path2989" class="st0" d="M218,690.1c0-13-4.8-19.4-14.3-19.4c-2.1,0-4.1,0.3-6.2,0.8c-2,0.5-3.6,1.2-4.9,2v36.6
			c1,0.2,2.2,0.4,3.8,0.5c1.5,0.1,3.2,0.1,5,0.1c5.5,0,9.6-1.9,12.4-5.7C216.6,701.3,218,696.3,218,690.1 M238.5,690.6
			c0,5.7-0.9,10.8-2.6,15.4c-1.6,4.6-4,8.5-7.2,11.7c-3.2,3.2-7,5.8-11.6,7.6c-4.6,1.7-9.8,2.6-15.7,2.6c-2.4,0-5-0.1-7.7-0.4
			c-2.6-0.2-5.2-0.5-7.8-0.8c-2.5-0.4-5-0.8-7.3-1.2c-2.3-0.5-4.4-1.1-6.2-1.6v-99.2l20.1-3.2v35.4c2.2-1,4.6-1.8,7-2.3
			c2.4-0.5,5-0.8,7.8-0.8c5,0,9.5,0.9,13.4,2.7c3.9,1.7,7.1,4.2,9.7,7.4c2.6,3.2,4.6,7.2,5.9,11.7C237.8,680,238.5,685,238.5,690.6"
			/>
		<path id="path2991" class="st0" d="M250.6,691.2c0-6.3,0.9-11.8,2.8-16.5c2-4.8,4.5-8.7,7.7-11.9c3.1-3.1,6.7-5.5,10.8-7.2
			c4.1-1.6,8.4-2.4,12.7-2.4c10.1,0,18,3.1,23.9,9.3c5.8,6.1,8.8,15.2,8.8,27.1c0,1.2,0,2.5-0.1,3.9c-0.1,1.4-0.2,2.6-0.3,3.6h-45.6
			c0.4,4.1,2.4,7.4,5.8,9.9c3.4,2.4,8,3.6,13.8,3.6c3.7,0,7.3-0.3,10.8-0.9c3.6-0.7,6.5-1.6,8.8-2.6l2.7,16.3
			c-1.1,0.5-2.5,1.1-4.3,1.6c-1.8,0.5-3.8,1-6.1,1.3c-2.2,0.5-4.5,0.8-7,1.1c-2.5,0.3-5,0.4-7.6,0.4c-6.4,0-12-0.9-16.7-2.8
			c-4.7-1.9-8.6-4.5-11.7-7.7c-3.1-3.3-5.4-7.2-6.9-11.7C251.3,701.2,250.6,696.4,250.6,691.2 M297.8,683.5c-0.1-1.7-0.4-3.4-0.9-5
			c-0.5-1.6-1.2-3.1-2.3-4.3c-1-1.3-2.3-2.3-3.9-3.1c-1.5-0.8-3.5-1.2-5.8-1.2c-2.3,0-4.2,0.4-5.8,1.2c-1.6,0.7-3,1.7-4,3
			c-1.1,1.3-1.9,2.7-2.6,4.5c-0.5,1.6-0.9,3.3-1.2,5H297.8"/>
		<path id="path2993" class="st0" d="M375.6,672.9c-1.8-0.4-3.9-0.9-6.3-1.4c-2.4-0.5-5-0.8-7.8-0.8c-1.3,0-2.8,0.1-4.6,0.4
			c-1.7,0.2-3,0.4-3.9,0.7v54.3h-20.1v-67.2c3.6-1.3,7.8-2.4,12.7-3.5c4.9-1.2,10.4-1.8,16.5-1.8c1.1,0,2.4,0.1,3.9,0.3
			c1.5,0.1,3.1,0.3,4.6,0.5c1.5,0.2,3.1,0.5,4.6,0.8c1.5,0.3,2.8,0.6,3.9,1.1L375.6,672.9"/>
		<path id="path2995" class="st0" d="M389.7,657.5c3.4-1,7.8-1.9,13.2-2.7c5.4-0.9,11.1-1.3,17-1.3c6,0,11,0.8,15,2.4
			c4,1.5,7.2,3.7,9.6,6.6c2.3,2.9,4,6.3,5,10.3c1,4,1.5,8.4,1.5,13.2v40.1h-20.1v-37.7c0-6.5-0.9-11.1-2.6-13.8
			c-1.7-2.7-4.9-4-9.6-4c-1.4,0-3,0.1-4.6,0.3c-1.6,0.1-3.1,0.2-4.3,0.4v54.8h-20.1V657.5"/>
		<path id="path2997" class="st0" d="M466,691.2c0-6.3,0.9-11.8,2.8-16.5c2-4.8,4.5-8.7,7.7-11.9c3.1-3.1,6.7-5.5,10.8-7.2
			c4.1-1.6,8.4-2.4,12.7-2.4c10.1,0,18,3.1,23.9,9.3c5.8,6.1,8.8,15.2,8.8,27.1c0,1.2,0,2.5-0.1,3.9c-0.1,1.4-0.2,2.6-0.3,3.6h-45.6
			c0.4,4.1,2.4,7.4,5.8,9.9c3.4,2.4,8,3.6,13.8,3.6c3.7,0,7.3-0.3,10.8-0.9c3.6-0.7,6.5-1.6,8.8-2.6l2.7,16.3
			c-1.1,0.5-2.5,1.1-4.3,1.6c-1.8,0.5-3.8,1-6.1,1.3c-2.2,0.5-4.5,0.8-7,1.1c-2.5,0.3-5,0.4-7.6,0.4c-6.4,0-12-0.9-16.7-2.8
			c-4.7-1.9-8.6-4.5-11.7-7.7c-3.1-3.3-5.4-7.2-6.9-11.7C466.7,701.2,466,696.4,466,691.2 M513.2,683.5c-0.1-1.7-0.4-3.4-0.9-5
			c-0.5-1.6-1.2-3.1-2.3-4.3c-1-1.3-2.3-2.3-3.9-3.1c-1.5-0.8-3.5-1.2-5.8-1.2c-2.3,0-4.2,0.4-5.8,1.2c-1.6,0.7-3,1.7-4,3
			c-1.1,1.3-1.9,2.7-2.6,4.5c-0.5,1.6-0.9,3.3-1.2,5H513.2"/>
		<path id="path2999" class="st0" d="M547.5,637.4l20.1-3.2v20.9h24.2v16.7h-24.2v25c0,4.2,0.7,7.6,2.2,10.1c1.5,2.5,4.5,3.8,9,3.8
			c2.2,0,4.4-0.2,6.6-0.5c2.3-0.4,4.5-1,6.3-1.8l2.8,15.7c-2.4,1-5.1,1.8-8.1,2.6c-3,0.7-6.6,1.1-10.9,1.1c-5.5,0-10-0.7-13.6-2.2
			c-3.6-1.5-6.5-3.6-8.6-6.2c-2.2-2.7-3.7-5.9-4.6-9.7c-0.8-3.8-1.2-8-1.2-12.6L547.5,637.4"/>
		<path id="path3001" class="st0" d="M602,691.2c0-6.3,0.9-11.8,2.8-16.5c2-4.8,4.5-8.7,7.7-11.9c3.1-3.1,6.8-5.5,10.8-7.2
			c4.1-1.6,8.4-2.4,12.7-2.4c10.1,0,18,3.1,23.9,9.3c5.8,6.1,8.8,15.2,8.8,27.1c0,1.2,0,2.5-0.1,3.9c-0.1,1.4-0.2,2.6-0.3,3.6h-45.6
			c0.4,4.1,2.4,7.4,5.8,9.9c3.4,2.4,8,3.6,13.8,3.6c3.7,0,7.3-0.3,10.8-0.9c3.6-0.7,6.5-1.6,8.8-2.6l2.7,16.3
			c-1.1,0.5-2.5,1.1-4.3,1.6c-1.8,0.5-3.8,1-6.1,1.3c-2.2,0.5-4.5,0.8-7,1.1c-2.5,0.3-5,0.4-7.6,0.4c-6.4,0-12-0.9-16.7-2.8
			c-4.7-1.9-8.6-4.5-11.7-7.7c-3.1-3.3-5.4-7.2-6.9-11.7C602.8,701.2,602,696.4,602,691.2 M649.3,683.5c-0.1-1.7-0.4-3.4-0.9-5
			c-0.5-1.6-1.2-3.1-2.3-4.3c-1-1.3-2.3-2.3-3.9-3.1c-1.5-0.8-3.5-1.2-5.8-1.2c-2.3,0-4.2,0.4-5.8,1.2c-1.6,0.7-3,1.7-4,3
			c-1.1,1.3-1.9,2.7-2.6,4.5c-0.5,1.6-0.9,3.3-1.2,5H649.3"/>
		<path id="path3003" class="st0" d="M704.6,711.7c3.7,0,6.3-0.4,7.8-1.1c1.5-0.7,2.3-2.1,2.3-4.2c0-1.6-1-3-3-4.2
			c-2-1.3-5-2.7-9-4.2c-3.2-1.2-6-2.4-8.6-3.6c-2.5-1.3-4.7-2.7-6.5-4.5c-1.8-1.8-3.2-3.9-4.2-6.3c-1-2.4-1.5-5.4-1.5-8.8
			c0-6.7,2.5-11.9,7.4-15.8c4.9-3.9,11.7-5.8,20.4-5.8c4.3,0,8.5,0.4,12.4,1.2c4,0.7,7.1,1.5,9.5,2.4l-3.5,15.7
			c-2.3-0.8-4.9-1.5-7.7-2.2c-2.7-0.6-5.8-0.9-9.2-0.9c-6.3,0-9.5,1.8-9.5,5.3c0,0.8,0.1,1.5,0.4,2.2c0.3,0.6,0.8,1.3,1.6,1.9
			c0.8,0.5,1.9,1.2,3.2,1.9c1.4,0.6,3.2,1.4,5.4,2.2c4.4,1.6,8.1,3.2,10.9,4.9c2.9,1.5,5.1,3.2,6.8,5.1c1.7,1.8,2.9,3.8,3.5,6.1
			c0.7,2.3,1.1,4.9,1.1,7.8c0,7-2.7,12.3-8,15.9c-5.2,3.6-12.6,5.4-22.3,5.4c-6.3,0-11.6-0.5-15.8-1.6c-4.1-1.1-7-2-8.6-2.7
			l3.4-16.3c3.4,1.3,6.9,2.4,10.5,3.2C697.6,711.3,701.1,711.7,704.6,711.7"/>
	</g>
</g>
</svg>
