<?xml version="1.0" encoding="utf-8"?>
<!-- Generator: Adobe Illustrator 22.1.0, SVG Export Plug-In . SVG Version: 6.00 Build 0)  -->
<svg version="1.1" id="e001fdc7-a1de-4d3c-abcc-81b0931098f0"
	 xmlns="http://www.w3.org/2000/svg" xmlns:xlink="http://www.w3.org/1999/xlink" x="0px" y="0px" viewBox="0 0 442.4 442.4"
	 style="enable-background:new 0 0 442.4 442.4;" xml:space="preserve">
<style type="text/css">
	.st0{fill:#679E63;}
	.st1{fill:#333333;}
	.st2{fill:url(#_x37_a7f716b-0563-42e2-a952-deb3e32df7e5_1_);}
	.st3{clip-path:url(#SVGID_2_);}
	.st4{fill:none;}
	.st5{fill:url(#SVGID_3_);}
	.st6{fill:url(#SVGID_4_);}
	.st7{fill:url(#SVGID_5_);}
	.st8{fill:url(#SVGID_6_);}
	.st9{fill:url(#SVGID_7_);}
	.st10{fill:url(#SVGID_8_);}
</style>
<title>logo-nodejs</title>
<path class="st0" d="M218.7,350.9c-1.5,0-2.9-0.4-4.2-1.1l-13.3-7.9c-2-1.1-1-1.5-0.4-1.7c2.1-0.7,4.1-1.6,6-2.7
	c0.3-0.2,0.7-0.1,1,0.1l10.2,6.1c0.4,0.2,0.9,0.2,1.2,0l40-23.1c0.4-0.2,0.6-0.6,0.6-1.1v-46.1c0-0.5-0.2-0.9-0.6-1.1l-39.9-23
	c-0.4-0.2-0.8-0.2-1.2,0l-39.9,23c-0.4,0.2-0.6,0.6-0.6,1.1v46.1c0,0.4,0.2,0.9,0.6,1.1l10.9,6.3c5.9,3,9.6-0.5,9.6-4v-45.6
	c0-0.6,0.5-1.2,1.1-1.2c0,0,0,0,0,0h5.1c0.6,0,1.2,0.5,1.2,1.1c0,0,0,0,0,0v45.5c0,7.9-4.3,12.5-11.8,12.5c-2.3,0-4.1,0-9.2-2.5
	l-10.5-6c-2.6-1.5-4.2-4.3-4.2-7.3v-46.1c0-3,1.6-5.8,4.2-7.3l39.9-23.1c2.6-1.4,5.8-1.4,8.4,0l40,23.1c2.6,1.5,4.2,4.3,4.2,7.3
	v46.1c0,3-1.6,5.8-4.2,7.3l-40,23.1C221.6,350.5,220.2,350.9,218.7,350.9z"/>
<path class="st0" d="M231,319.2c-17.5,0-21.1-8-21.1-14.8c0-0.6,0.5-1.1,1.1-1.1c0,0,0,0,0,0h5.2c0.6,0,1.1,0.4,1.1,1
	c0.8,5.3,3.1,7.9,13.7,7.9c8.4,0,12-1.9,12-6.4c0-2.6-1-4.5-14.1-5.8c-10.9-1.1-17.7-3.5-17.7-12.2c0-8.1,6.8-12.9,18.2-12.9
	c12.8,0,19.1,4.4,19.9,14c0,0.3-0.1,0.6-0.3,0.9c-0.2,0.2-0.5,0.4-0.9,0.4H243c-0.5,0-1-0.4-1.1-0.9c-1.2-5.5-4.3-7.3-12.5-7.3
	c-9.2,0-10.3,3.2-10.3,5.6c0,2.9,1.3,3.8,13.7,5.4s18.1,3.9,18.1,12.5C250.9,314.2,243.7,319.2,231,319.2z"/>
<path class="st0" d="M288.6,270.8c0,4.3-3.4,7.7-7.7,7.7s-7.7-3.4-7.7-7.7c0-4.3,3.4-7.7,7.7-7.7
	C285.1,263.1,288.6,266.6,288.6,270.8z M274.4,270.8c0,3.6,2.9,6.5,6.4,6.5s6.5-2.9,6.5-6.4c0-3.6-2.9-6.5-6.4-6.5c0,0,0,0,0,0
	C277.3,264.4,274.5,267.2,274.4,270.8L274.4,270.8z M278,266.5h3c1,0,3,0,3,2.3c0.1,1-0.6,1.9-1.6,2.1c1.2,0.1,1.3,0.9,1.4,2
	c0,0.8,0.2,1.5,0.5,2.3h-1.8c0-0.4-0.3-2.6-0.3-2.7c-0.1-0.5-0.3-0.7-0.9-0.7h-1.5v3.5H278L278,266.5z M279.6,270.3h1.3
	c0.6,0.1,1.2-0.4,1.3-1c0-0.1,0-0.1,0-0.2c0-1.2-0.8-1.2-1.3-1.2h-1.4V270.3z"/>
<path class="st1" d="M94.9,170.6c0-1.8-1-3.5-2.6-4.4L50,141.7c-0.7-0.4-1.5-0.6-2.3-0.7h-0.4c-0.8,0-1.6,0.3-2.3,0.7L2.6,166.1
	C1,167,0,168.7,0,170.5l0.1,65.6c0,0.9,0.5,1.8,1.3,2.2c0.8,0.5,1.8,0.5,2.5,0L29.1,224c1.6-0.9,2.6-2.6,2.6-4.4v-30.7
	c0-1.8,1-3.5,2.6-4.4l10.7-6.2c0.8-0.4,1.7-0.7,2.6-0.7c0.9,0,1.8,0.2,2.5,0.7l10.7,6.2c1.6,0.9,2.6,2.6,2.6,4.4v30.7
	c0,1.8,1,3.5,2.6,4.4L91,238.4c0.8,0.5,1.8,0.5,2.6,0c0.8-0.5,1.3-1.3,1.3-2.2L94.9,170.6z"/>
<path class="st1" d="M298.7,80.3c-1.2-0.7-2.8-0.2-3.5,1c-0.2,0.4-0.3,0.8-0.3,1.2v65c0,0.6-0.3,1.2-0.9,1.6c-0.6,0.3-1.2,0.3-1.8,0
	l-10.6-6.1c-1.6-0.9-3.5-0.9-5.1,0l-42.4,24.4c-1.6,0.9-2.6,2.6-2.6,4.4v48.9c0,1.8,1,3.5,2.6,4.4l42.4,24.5c1.6,0.9,3.5,0.9,5.1,0
	l42.4-24.5c1.6-0.9,2.6-2.6,2.6-4.4V98.9c0-1.9-1-3.6-2.6-4.5L298.7,80.3z M294.8,204.7c0,0.5-0.2,0.9-0.6,1.1l-14.5,8.4
	c-0.4,0.2-0.9,0.2-1.3,0l-14.5-8.4c-0.4-0.2-0.6-0.7-0.6-1.1v-16.8c0-0.5,0.2-0.9,0.6-1.1l14.5-8.4c0.4-0.2,0.9-0.2,1.3,0l14.5,8.4
	c0.4,0.2,0.6,0.6,0.6,1.1L294.8,204.7z"/>
<path class="st1" d="M439.8,187.5c1.6-0.9,2.6-2.6,2.5-4.4v-11.8c0-1.8-1-3.5-2.5-4.4l-42.1-24.4c-1.6-0.9-3.5-0.9-5.1,0l-42.4,24.5
	c-1.6,0.9-2.6,2.6-2.6,4.4v48.9c0,1.8,1,3.5,2.6,4.4l42.1,24c1.6,0.9,3.4,0.9,5,0l25.5-14.1c1.2-0.7,1.7-2.3,1-3.5
	c-0.2-0.4-0.6-0.7-1-1l-42.6-24.5c-0.8-0.5-1.3-1.3-1.3-2.2V188c0-0.9,0.5-1.8,1.3-2.2l13.3-7.6c0.8-0.5,1.8-0.5,2.5,0l13.3,7.6
	c0.8,0.5,1.3,1.3,1.3,2.2v12c0,1.4,1.1,2.6,2.5,2.6c0.5,0,0.9-0.1,1.3-0.4L439.8,187.5z"/>
<path class="st0" d="M394.5,185.2c0.3-0.2,0.7-0.2,1,0l8.2,4.7c0.3,0.2,0.5,0.5,0.5,0.9v9.4c0,0.4-0.2,0.7-0.5,0.9l-8.1,4.7
	c-0.3,0.2-0.7,0.2-1,0l-8.1-4.7c-0.3-0.2-0.5-0.5-0.5-0.9v-9.4c0-0.4,0.2-0.7,0.5-0.9L394.5,185.2z"/>
<linearGradient id="_x37_a7f716b-0563-42e2-a952-deb3e32df7e5_1_" gradientUnits="userSpaceOnUse" x1="258.6878" y1="119.296" x2="220.6278" y2="41.636" gradientTransform="matrix(1 0 0 -1 -78.31 279.98)">
	<stop  offset="0" style="stop-color:#3F873F"/>
	<stop  offset="0.33" style="stop-color:#3F8B3D"/>
	<stop  offset="0.64" style="stop-color:#3E9637"/>
	<stop  offset="0.93" style="stop-color:#3DA92E"/>
	<stop  offset="1" style="stop-color:#3DAE2B"/>
</linearGradient>
<path id="_x37_a7f716b-0563-42e2-a952-deb3e32df7e5" class="st2" d="M165.8,142.6c-1.6-0.9-3.5-0.9-5.1,0l-42.1,24.3
	c-1.6,0.9-2.5,2.6-2.6,4.4V220c0,1.8,1,3.5,2.6,4.4l42.1,24.3c1.6,0.9,3.5,0.9,5.1,0l42.1-24.3c1.6-0.9,2.5-2.6,2.5-4.4v-48.7
	c0-1.8-1-3.5-2.5-4.4L165.8,142.6z"/>
<g>
	<defs>
		<path id="SVGID_1_" d="M165.8,142.6c-1.6-0.9-3.5-0.9-5.1,0l-42.1,24.3c-1.6,0.9-2.5,2.6-2.6,4.4V220c0,1.8,1,3.5,2.6,4.4
			l42.1,24.3c1.6,0.9,3.5,0.9,5.1,0l42.1-24.3c1.6-0.9,2.5-2.6,2.5-4.4v-48.7c0-1.8-1-3.5-2.5-4.4L165.8,142.6z"/>
	</defs>
	<clipPath id="SVGID_2_">
		<use xlink:href="#SVGID_1_"  style="overflow:visible;"/>
	</clipPath>
	<g class="st3">
		<path class="st4" d="M160.6,142.6l-42.2,24.3c-1.6,0.9-2.6,2.6-2.7,4.4V220c0,1.2,0.5,2.4,1.3,3.2l47.4-81.1
			C163.1,141.7,161.8,141.9,160.6,142.6z"/>
		<path class="st4" d="M164.7,249.2c0.4-0.1,0.8-0.3,1.2-0.5l42.2-24.3c1.6-0.9,2.6-2.6,2.6-4.4v-48.7c0-1.3-0.6-2.6-1.5-3.5
			L164.7,249.2z"/>
		
			<linearGradient id="SVGID_3_" gradientUnits="userSpaceOnUse" x1="235.1608" y1="78.649" x2="341.9608" y2="157.559" gradientTransform="matrix(1 0 0 -1 -78.31 279.98)">
			<stop  offset="0.14" style="stop-color:#3F873F"/>
			<stop  offset="0.4" style="stop-color:#529F44"/>
			<stop  offset="0.71" style="stop-color:#63B649"/>
			<stop  offset="0.91" style="stop-color:#6ABF4B"/>
		</linearGradient>
		<path class="st5" d="M208,166.9l-42.2-24.3c-0.4-0.2-0.9-0.4-1.3-0.5L117,223.2c0.4,0.5,0.9,0.9,1.4,1.2l42.3,24.3
			c1.2,0.7,2.6,0.9,3.9,0.5l44.5-81.4C208.8,167.4,208.4,167.1,208,166.9z"/>
		<path class="st4" d="M210.7,220v-48.7c-0.1-1.8-1.1-3.5-2.7-4.4l-42.2-24.3c-0.5-0.3-1-0.5-1.6-0.6l46.3,79.1
			C210.6,220.8,210.7,220.4,210.7,220z"/>
		<path class="st4" d="M118.4,166.9c-1.6,0.9-2.6,2.6-2.7,4.4V220c0.1,1.8,1.1,3.5,2.7,4.4l42.3,24.3c1,0.6,2.1,0.8,3.2,0.6
			l-45.3-82.6L118.4,166.9z"/>
		
			<linearGradient id="SVGID_4_" gradientUnits="userSpaceOnUse" x1="114.56" y1="310.185" x2="211.97" y2="310.185" gradientTransform="matrix(1 0 0 -1 0 444)">
			<stop  offset="9.000000e-02" style="stop-color:#6ABF4B"/>
			<stop  offset="0.29" style="stop-color:#63B649"/>
			<stop  offset="0.6" style="stop-color:#529F44"/>
			<stop  offset="0.86" style="stop-color:#3F873F"/>
		</linearGradient>
		<polygon class="st6" points="159.3,133.6 158.7,134 159.5,134 		"/>
		
			<linearGradient id="SVGID_5_" gradientUnits="userSpaceOnUse" x1="192.86" y1="84.387" x2="290.28" y2="84.387" gradientTransform="matrix(1 0 0 -1 -78.31 279.98)">
			<stop  offset="9.000000e-02" style="stop-color:#6ABF4B"/>
			<stop  offset="0.29" style="stop-color:#63B649"/>
			<stop  offset="0.6" style="stop-color:#529F44"/>
			<stop  offset="0.86" style="stop-color:#3F873F"/>
		</linearGradient>
		<path class="st7" d="M208,224.4c1.2-0.7,2.1-1.9,2.5-3.2L164.2,142c-1.2-0.2-2.5,0-3.6,0.6l-42,24.2l45.3,82.6
			c0.7-0.1,1.3-0.3,1.9-0.6L208,224.4z"/>
		
			<linearGradient id="SVGID_6_" gradientUnits="userSpaceOnUse" x1="114.56" y1="220.555" x2="211.97" y2="220.555" gradientTransform="matrix(1 0 0 -1 0 444)">
			<stop  offset="9.000000e-02" style="stop-color:#6ABF4B"/>
			<stop  offset="0.29" style="stop-color:#63B649"/>
			<stop  offset="0.6" style="stop-color:#529F44"/>
			<stop  offset="0.86" style="stop-color:#3F873F"/>
		</linearGradient>
		<polygon class="st8" points="212,223.6 211.7,223.1 211.7,223.8 		"/>
		
			<linearGradient id="SVGID_7_" gradientUnits="userSpaceOnUse" x1="192.86" y1="43.98" x2="290.28" y2="43.98" gradientTransform="matrix(1 0 0 -1 -78.31 279.98)">
			<stop  offset="9.000000e-02" style="stop-color:#6ABF4B"/>
			<stop  offset="0.29" style="stop-color:#63B649"/>
			<stop  offset="0.6" style="stop-color:#529F44"/>
			<stop  offset="0.86" style="stop-color:#3F873F"/>
		</linearGradient>
		<path class="st9" d="M208,224.4l-42.2,24.3c-0.6,0.3-1.2,0.5-1.9,0.6l0.8,1.5l46.8-27.1v-0.6l-1.2-2
			C210.2,222.5,209.3,223.7,208,224.4z"/>
		
			<linearGradient id="SVGID_8_" gradientUnits="userSpaceOnUse" x1="304.4692" y1="121.5904" x2="244.3892" y2="-0.9796" gradientTransform="matrix(1 0 0 -1 -78.31 279.98)">
			<stop  offset="0" style="stop-color:#3F873F"/>
			<stop  offset="0.33" style="stop-color:#3F8B3D"/>
			<stop  offset="0.64" style="stop-color:#3E9637"/>
			<stop  offset="0.93" style="stop-color:#3DA92E"/>
			<stop  offset="1" style="stop-color:#3DAE2B"/>
		</linearGradient>
		<path class="st10" d="M208,224.4l-42.2,24.3c-0.6,0.3-1.2,0.5-1.9,0.6l0.8,1.5l46.8-27.1v-0.6l-1.2-2
			C210.2,222.5,209.3,223.7,208,224.4z"/>
	</g>
</g>
</svg>
