<?xml version="1.0" encoding="utf-8"?>
<!-- Generator: Adobe Illustrator 22.1.0, SVG Export Plug-In . SVG Version: 6.00 Build 0)  -->
<svg version="1.1"
	 id="svg8" inkscape:version="0.92.1 r15371" sodipodi:docname="Azurey.svg" xmlns:cc="http://creativecommons.org/ns#" xmlns:dc="http://purl.org/dc/elements/1.1/" xmlns:inkscape="http://www.inkscape.org/namespaces/inkscape" xmlns:rdf="http://www.w3.org/1999/02/22-rdf-syntax-ns#" xmlns:sodipodi="http://sodipodi.sourceforge.net/DTD/sodipodi-0.dtd" xmlns:svg="http://www.w3.org/2000/svg"
	 xmlns="http://www.w3.org/2000/svg" xmlns:xlink="http://www.w3.org/1999/xlink" x="0px" y="0px" viewBox="0 0 150 150"
	 style="enable-background:new 0 0 150 150;" xml:space="preserve">
<style type="text/css">
	.st0{fill:#0089D6;}
</style>
<sodipodi:namedview  bordercolor="#666666" borderopacity="1.0" fit-margin-bottom="0" fit-margin-left="0" fit-margin-right="0" fit-margin-top="0" id="base" inkscape:current-layer="layer1" inkscape:cx="67.4659" inkscape:cy="38.024323" inkscape:document-units="mm" inkscape:pagecheckerboard="true" inkscape:pageopacity="0.0" inkscape:pageshadow="2" inkscape:window-height="781" inkscape:window-maximized="0" inkscape:window-width="930" inkscape:window-x="667" inkscape:window-y="117" inkscape:zoom="6.5246067" pagecolor="#ffffff" showgrid="false">
	</sodipodi:namedview>
<g id="layer1" transform="translate(677.9313,-313.85407)" inkscape:groupmode="layer" inkscape:label="Layer 1">
	<g id="layer1-1" transform="matrix(0.03978217,0,0,0.03978217,-658.51488,317.36166)" inkscape:label="Layer 1">
		<path id="path21" inkscape:connector-curvature="0" class="st0" d="M160.7,2282.2c180.2-31.8,329-58.2,330.7-58.5l3.1-0.7
			l-170.1-202.3c-93.6-111.3-170.1-202.8-170.1-203.3c0-1,175.7-484.7,176.6-486.4c0.3-0.6,119.9,205.8,289.8,500.3
			c159.1,275.7,290.2,503,291.4,505.1l2.2,3.9l-540.6-0.1l-540.6-0.1C-166.9,2340.1,160.7,2282.2,160.7,2282.2z M2233.9,2233.3
			c-82.3-5.3-130.2-52.1-142.8-139.8c-3.4-23.3-3.4-23.9-3.7-175.4l-0.3-146.6h36.4h36.4l0.3,141.8c0.3,127.8,0.4,142.8,1.6,151.8
			c5,36.5,14.8,61,31.6,78.6c13.5,14.1,29.2,22.3,51,26.7c10.3,2.1,39.5,2.1,48.9,0c22.1-4.9,39.8-14.5,55.4-30.1
			c17.8-17.8,31-43.1,37.4-71.6l2.1-9.6l0.2-143l0.2-143h37.2h37.2v224.8v224.8h-36.8h-36.8V2187c0-24.2-0.3-35.6-0.8-35.4
			c-0.5,0.2-2.3,3-4.2,6.4c-12.7,23.1-33.8,44.3-57,57C2299.8,2230.3,2272,2235.7,2233.9,2233.3L2233.9,2233.3z M3069.2,2232.9
			c-29-2.2-59.6-12.2-84.6-27.6c-52.7-32.6-83.9-86.3-93-160.3c-3.2-25.6-3.5-60-0.9-81.7c5.9-48.6,25-96.3,52.2-130.3
			c7-8.7,22.8-24.5,31.5-31.5c23.6-18.8,51.1-32,80.4-38.4c17.1-3.7,47.1-5.5,65.2-3.8c45.5,4.2,87.2,25.6,115.6,59.4
			c28.8,34.3,44.6,82.1,46.7,141.1c0.3,9.2,0.4,25.4,0.2,36l-0.4,19.2l-159.4,0.2l-159.4,0.2v7.1c0,21.7,5.3,46.3,14.4,67.3
			c7.8,18.1,21.4,37.9,32.4,47.4c22.7,19.6,50.4,31.3,80.8,34.2c11.3,1,40-0.1,52.8-2c36.6-5.6,71.4-20,99.5-41.1
			c3.3-2.5,6.5-4.8,7-5.1c0.8-0.5,1,6,1,33.2l0,33.8l-7.5,4.7c-31.8,19.7-68.2,32.3-106.8,37C3125.2,2233.3,3083,2234,3069.2,2232.9
			L3069.2,2232.9z M3207.9,1947.5c0-36.3-15.3-76.6-36.9-97.3c-15.4-14.8-34.1-23.9-56.3-27.3c-10.5-1.6-32.6-1-43.7,1.2
			c-23.4,4.7-42.7,15-59.6,31.7c-17.8,17.6-31.1,38.9-39.5,63.2c-3,8.7-6.5,23.1-7.6,31l-0.5,3.8h122h122V1947.5z M1045.7,2221.6
			c0.2-0.6,54.3-142.7,120.3-316l119.9-315l38.5,0l38.5,0l3.2,8.2c9.8,25.1,240.1,623.1,240.1,623.4c0,0.2-18.5,0.4-41,0.4l-41,0
			l-33.2-88.4l-33.2-88.4l-133.7,0l-133.7,0l-1.2,3c-0.6,1.6-14.8,41.4-31.5,88.4l-30.4,85.4l-41.1,0
			C1053.9,2222.6,1045.4,2222.4,1045.7,2221.6L1045.7,2221.6z M1433.5,1978.4c0-0.1-22.3-60.7-49.6-134.6
			c-51.1-138.2-53.9-146.6-58-168.7c-1.9-10.4-2.9-10.7-4-1.2c-0.8,6.8-4.3,22-7,30.4c-1.3,4.2-24.3,67.3-51.1,140.3
			c-26.8,73-48.7,133-48.7,133.4c0,0.4,49.1,0.7,109.2,0.7S1433.5,1978.5,1433.5,1978.4z M1631.1,2211.1v-11.5l133.2-183.1
			l133.2-183.1l-120.6-0.4l-120.6-0.4l-0.2-30.6l-0.2-30.6h174.4h174.4v10.3v10.3l-133.2,184.1c-73.3,101.2-133.2,184.3-133.2,184.5
			c0,0.2,59.2,0.4,131.6,0.4h131.6v30.8v30.8h-185.2h-185.2V2211.1z M2608.5,2222.1c-0.3-0.3-0.5-101.8-0.5-225.6v-225.1h36.4h36.4
			v46.4c0,25.5,0.3,46.4,0.7,46.4s2.2-4.2,3.9-9.3c8.2-23.4,22.4-45.3,40.7-62.6c16.5-15.7,35.3-25,57.5-28.6c6.2-1,11.5-1.2,24-0.9
			c15.7,0.4,23.9,1.6,33.4,4.7l3,1v37.8v37.8l-8.6-4.3c-15.2-7.6-30.2-10.6-48.2-9.7c-11.7,0.6-19.4,2.1-28.8,5.6
			c-19.3,7.2-34.9,20-45.9,37.5c-15.8,25.3-27.1,57.7-30.4,87.5c-0.6,5.4-0.9,49-1.1,134.9l-0.2,127h-35.9
			C2625.1,2222.6,2608.8,2222.4,2608.5,2222.1z M-488.1,2220.5c0-0.3,80.2-139.4,178.1-309.2l178.1-308.7l207.6-174.2
			c114.2-95.8,207.9-174.3,208.3-174.5c0.4-0.1-1.1,3.6-3.3,8.4c-2.2,4.8-103.6,222.3-225.4,483.5l-221.4,474.8l-161,0.2
			C-415.6,2221-488.1,2220.8-488.1,2220.5z"/>
	</g>
</g>
</svg>
