<?xml version="1.0" encoding="utf-8"?>
<!-- Generator: Adobe Illustrator 22.1.0, SVG Export Plug-In . SVG Version: 6.00 Build 0)  -->
<svg version="1.1" id="Layer_1" xmlns="http://www.w3.org/2000/svg" xmlns:xlink="http://www.w3.org/1999/xlink" x="0px" y="0px"
	 viewBox="0 0 130.2 130.2" style="enable-background:new 0 0 130.2 130.2;" xml:space="preserve">
<style type="text/css">
	.st0{fill:url(#XMLID_2_);}
	.st1{fill:url(#XMLID_3_);}
	.st2{fill:url(#XMLID_4_);}
	.st3{fill:url(#XMLID_5_);}
	.st4{fill:#FFFFFF;}
</style>
<g>
	
		<linearGradient id="XMLID_2_" gradientUnits="userSpaceOnUse" x1="36.8568" y1="11.4993" x2="115.2558" y2="58.8171" gradientTransform="matrix(1 0 0 -1 0 132)">
		<stop  offset="0" style="stop-color:#FCEE39"/>
		<stop  offset="1" style="stop-color:#F37B3D"/>
	</linearGradient>
	<path id="XMLID_3041_" class="st0" d="M123.7,71.8c0.9-0.8,1.4-1.9,1.5-3.2c0.1-2.6-1.8-4.7-4.4-4.9c-1.2-0.1-2.4,0.4-3.3,1.1l0,0
		l-83.8,45.9c-1.9,0.8-3.6,2.2-4.7,4.1c-2.9,4.8-1.3,11,3.6,13.9c3.4,2,7.5,1.8,10.7-0.2l0,0l0,0c0.2-0.2,0.5-0.3,0.7-0.5l78-54.8
		C122.4,72.9,123.5,72.1,123.7,71.8L123.7,71.8L123.7,71.8z"/>
	
		<linearGradient id="XMLID_3_" gradientUnits="userSpaceOnUse" x1="53.4312" y1="125.1151" x2="124.9884" y2="62.4688" gradientTransform="matrix(1 0 0 -1 0 132)">
		<stop  offset="0" style="stop-color:#EF5A6B"/>
		<stop  offset="0.57" style="stop-color:#F26F4E"/>
		<stop  offset="1" style="stop-color:#F37B3D"/>
	</linearGradient>
	<path id="XMLID_3049_" class="st1" d="M123.9,65.1L123.9,65.1L60,2.5C58.6,1,56.6,0,54.3,0c-4.3,0-7.7,3.5-7.7,7.7l0,0
		c0,2.1,0.8,3.9,2.1,5.3l0,0l0,0c0.4,0.4,0.8,0.7,1.2,1l67.4,57.7l0,0c0.8,0.7,1.8,1.2,3,1.3c2.6,0.1,4.7-1.8,4.9-4.4
		C125.2,67.3,124.8,66,123.9,65.1z"/>
	
		<linearGradient id="XMLID_4_" gradientUnits="userSpaceOnUse" x1="57.9774" y1="68.3284" x2="15.5686" y2="94.8129" gradientTransform="matrix(1 0 0 -1 0 132)">
		<stop  offset="0" style="stop-color:#7C59A4"/>
		<stop  offset="0.3852" style="stop-color:#AF4C92"/>
		<stop  offset="0.7654" style="stop-color:#DC4183"/>
		<stop  offset="0.957" style="stop-color:#ED3D7D"/>
	</linearGradient>
	<path id="XMLID_3042_" class="st2" d="M62.1,59.5C62,59.5,22.8,28.5,22,28l0,0l0,0c-0.6-0.3-1.2-0.6-1.8-0.9
		C14.4,24.9,8,27.9,5.8,33.7C3.9,38.8,6,44.4,10.4,47.1l0,0l0,0c0.7,0.4,1.3,0.7,2,0.9c0.4,0.2,45.4,18.8,45.4,18.8l0,0
		c1.8,0.8,3.9,0.3,5.1-1.2C64.3,63.7,64.1,61,62.1,59.5z"/>
	
		<linearGradient id="XMLID_5_" gradientUnits="userSpaceOnUse" x1="57.2097" y1="128.3149" x2="15.8067" y2="94.1197" gradientTransform="matrix(1 0 0 -1 0 132)">
		<stop  offset="0" style="stop-color:#EF5A6B"/>
		<stop  offset="0.364" style="stop-color:#EE4E72"/>
		<stop  offset="1" style="stop-color:#ED3D7D"/>
	</linearGradient>
	<path id="XMLID_3057_" class="st3" d="M54.3,0c-1.7,0-3.3,0.6-4.6,1.5L10,28.3c-0.1,0.1-0.2,0.1-0.2,0.2H9.7l0,0
		c-1.7,1.2-3.1,3-3.9,5.1C3.6,39.4,6.6,45.9,12.4,48c3.6,1.4,7.5,0.7,10.4-1.4l0,0l0,0c0.7-0.5,1.3-1,1.8-1.6l34.6-31.2l0,0
		c1.8-1.4,3-3.6,3-6.1l0,0C62.1,3.5,58.6,0,54.3,0z"/>
	<g id="XMLID_3008_">
		<rect id="XMLID_3033_" x="39.6" y="37.4" width="51" height="51"/>
		<rect id="XMLID_3032_" x="44" y="78.8" class="st4" width="19.1" height="3.2"/>
		<g id="XMLID_3009_">
			<path id="XMLID_3030_" class="st4" d="M43.8,50.8l1.5-1.4c0.4,0.5,0.8,0.8,1.3,0.8c0.6,0,0.9-0.4,0.9-1.2v-5.3h2.3V49
				c0,1-0.3,1.8-0.8,2.3s-1.3,0.8-2.3,0.8C45.2,52.2,44.5,51.6,43.8,50.8z"/>
			<path id="XMLID_3028_" class="st4" d="M50.3,43.8H57v1.9h-4.4V47h4v1.8h-4v1.3h4.5v2h-6.7L50.3,43.8z"/>
			<path id="XMLID_3026_" class="st4" d="M60,45.8h-2.5v-2h7.3v2h-2.5v6.3H60V45.8z"/>
			<path id="XMLID_3022_" class="st4" d="M44,54h4.3c1,0,1.8,0.3,2.3,0.7c0.3,0.3,0.5,0.8,0.5,1.4l0,0c0,1-0.5,1.5-1.3,1.9
				c1,0.3,1.6,0.9,1.6,2l0,0c0,1.4-1.2,2.3-3.1,2.3H44V54z M48.8,56.6c0-0.5-0.4-0.7-1-0.7h-1.5v1.5h1.4
				C48.5,57.3,48.8,57.1,48.8,56.6L48.8,56.6z M48,59h-1.8v1.5H48c0.7,0,1.1-0.3,1.1-0.8l0,0C49.1,59.2,48.8,59,48,59z"/>
			<path id="XMLID_3019_" class="st4" d="M51.8,54h3.9c1.3,0,2.1,0.3,2.7,0.9c0.5,0.5,0.7,1.1,0.7,1.9l0,0c0,1.3-0.7,2.1-1.7,2.6
				l2,2.9h-2.6l-1.7-2.5h-1v2.5h-2.3L51.8,54z M55.6,58c0.8,0,1.2-0.4,1.2-1l0,0c0-0.7-0.5-1-1.2-1h-1.5v2H55.6z"/>
			<path id="XMLID_3016_" class="st4" d="M61.8,54h2.2l3.5,8.4h-2.5l-0.6-1.5h-3.2l-0.6,1.5h-2.4L61.8,54z M63.8,59l-0.9-2.3L62,59
				H63.8z"/>
			<path id="XMLID_3014_" class="st4" d="M67.8,54h2.3v8.3h-2.3V54z"/>
			<path id="XMLID_3012_" class="st4" d="M70.8,54h2.1l3.4,4.4V54h2.3v8.3h-2l-3.5-4.5v4.6h-2.3V54z"/>
			<path id="XMLID_3010_" class="st4" d="M78.8,61.1l1.3-1.5c0.8,0.7,1.7,1,2.7,1c0.6,0,1-0.2,1-0.6l0,0c0-0.4-0.3-0.5-1.4-0.8
				c-1.8-0.4-3.1-0.9-3.1-2.6l0,0c0-1.5,1.2-2.7,3.2-2.7c1.4,0,2.5,0.4,3.4,1.1l-1.2,1.6c-0.8-0.5-1.6-0.8-2.3-0.8
				c-0.6,0-0.8,0.2-0.8,0.5l0,0c0,0.4,0.3,0.5,1.4,0.8c1.9,0.4,3.1,1,3.1,2.6l0,0c0,1.7-1.3,2.7-3.4,2.7
				C81.2,62.5,79.8,62,78.8,61.1z"/>
		</g>
	</g>
</g>
</svg>
