<?xml version="1.0" encoding="utf-8"?>
<!-- Generator: Adobe Illustrator 23.0.1, SVG Export Plug-In . SVG Version: 6.00 Build 0)  -->
<svg version="1.1" id="Layer_1" xmlns="http://www.w3.org/2000/svg" xmlns:xlink="http://www.w3.org/1999/xlink" x="0px" y="0px"
	 viewBox="0 0 136 109" style="enable-background:new 0 0 136 109;" xml:space="preserve">
<style type="text/css">
	.st0{filter:url(#Adobe_OpacityMaskFilter);}
	.st1{fill-rule:evenodd;clip-rule:evenodd;fill:#FFFFFF;}
	.st2{mask:url(#mask-2_1_);fill-rule:evenodd;clip-rule:evenodd;fill:#E0E0E0;}
	.st3{filter:url(#Adobe_OpacityMaskFilter_1_);}
	.st4{mask:url(#mask-4_1_);fill-rule:evenodd;clip-rule:evenodd;fill:#E0E0E0;}
	.st5{fill-rule:evenodd;clip-rule:evenodd;fill:#E0E0E0;}
	.st6{fill-rule:evenodd;clip-rule:evenodd;fill:#E2E2E2;}
	.st7{filter:url(#Adobe_OpacityMaskFilter_2_);}
	.st8{mask:url(#mask-6_1_);fill-rule:evenodd;clip-rule:evenodd;fill:#E2E2E2;}
	.st9{fill-rule:evenodd;clip-rule:evenodd;fill:#660066;}
	.st10{fill-rule:evenodd;clip-rule:evenodd;fill:#2385AF;}
</style>
<title>Group 8</title>
<desc>Created with Sketch.</desc>
<g id="Group-8">
	<g id="Page-1" transform="translate(59.000000, 55.000000)">
		<g id="Group-3" transform="translate(5.462089, 0.029224)">
			<g id="Clip-2">
			</g>
			<defs>
				<filter id="Adobe_OpacityMaskFilter" filterUnits="userSpaceOnUse" x="1.2" y="1.2" width="41.4" height="23.5">
					<feColorMatrix  type="matrix" values="1 0 0 0 0  0 1 0 0 0  0 0 1 0 0  0 0 0 1 0"/>
				</filter>
			</defs>
			<mask maskUnits="userSpaceOnUse" x="1.2" y="1.2" width="41.4" height="23.5" id="mask-2_1_">
				<g class="st0">
					<polygon id="path-1_1_" class="st1" points="42.6,1.2 1.2,1.2 1.2,24.7 42.6,24.7 					"/>
				</g>
			</mask>
			<path id="Fill-1" class="st2" d="M5.4,2.3c0.5-0.7,1.4-1,2.2-1c10.9,0,21.7-0.1,32.6-0.1C42.1,1.1,43.3,3.6,42,5
				c-0.7,1.1-2.2,1-3.3,1c-1.3,0-2.7,0-4,0c-1.2,0-2.2,1.2-2.1,2.4c0,0.8,0.6,1.3,0.9,1.9c-2,1.7-4,3.3-6,5
				c-1.4,0.2-2.8-0.1-4.2,0.2c-1.3,0.4-2,1.9-1.5,3.2c0.4,0.8,1.3,1.4,2.2,1.3c3.5,0,7,0,10.4,0c0.9,0,1.8-0.1,2.7,0.2
				c-4.4,0.1-8.8,0.1-13.1,0.1c-0.5,0-0.9,0.2-1.3,0.5c-1.6,1.3-3.1,2.6-4.7,3.9c-0.9,0.1-1.9,0-2.8,0c-1.7,0-3.5,0-5.2,0
				c-2.1,0-4.3,0-6.4,0c-0.8,0-1.6-0.5-2.1-1.2c-0.1-0.2-0.2-0.4-0.2-0.6c-0.1-0.4-0.1-0.8,0-1.2c0.3-1,1.3-1.8,2.4-1.8
				c1.3,0.1,2.5-1,2.5-2.3c0-1.1-0.8-2.1-1.8-2.3c-0.8-0.1-1.5,0-2.3-0.1c1.7-1.6,3.6-3.1,5.3-4.6c1.9-0.2,3.8,0.1,5.7-0.1
				c1.3-0.1,2.2-1.4,2-2.7c-0.2-1.1-1.2-2-2.3-2c-1.8-0.1-3.7,0-5.5,0c-1,0-2-0.8-2-1.8C5.1,3.5,5,2.8,5.4,2.3"/>
		</g>
		<g id="Group-6" transform="translate(31.822604, 9.272696)">
			<g id="Clip-5">
			</g>
			<defs>
				<filter id="Adobe_OpacityMaskFilter_1_" filterUnits="userSpaceOnUse" x="1.1" y="1" width="23.2" height="5.1">
					<feColorMatrix  type="matrix" values="1 0 0 0 0  0 1 0 0 0  0 0 1 0 0  0 0 0 1 0"/>
				</filter>
			</defs>
			<mask maskUnits="userSpaceOnUse" x="1.1" y="1" width="23.2" height="5.1" id="mask-4_1_">
				<g class="st3">
					<polygon id="path-3_1_" class="st1" points="24.3,6.1 24.3,1 1.1,1 1.1,6.1 					"/>
				</g>
			</mask>
			<path id="Fill-4" class="st4" d="M1.1,6c2-1.7,4-3.3,6-5c0.6,0.2,1.1,0.4,1.7,0.4c4.4,0,8.7,0,13.1,0c1-0.1,2,0.6,2.3,1.5
				c0.4,1.1-0.1,2.4-1.1,2.9c-0.7,0.4-1.6,0.3-2.4,0.3C14.2,6,7.6,6.1,1.1,6"/>
		</g>
		<g id="Group-9" transform="translate(0.000000, 9.509708)">
			<path id="Fill-7" class="st5" d="M1.2,4.5C0.4,2.9,1.9,0.8,3.7,1.1c2.9,0,5.8,0,8.7,0l0.3,0.1C10.9,2.7,9,4.2,7.4,5.8
				c-0.6,0-1.2,0-1.8,0C4,5.8,2,6.2,1.2,4.5"/>
		</g>
		<path id="Fill-10" class="st5" d="M28.2,20.8c0.4-0.3,0.8-0.6,1.3-0.5c4.4-0.1,8.8,0,13.1-0.1c1.1,0.3,1.8,1.6,1.6,2.7
			c-0.2,1.1-1.2,1.9-2.4,1.9c-6.1,0-12.2,0-18.4,0C25.1,23.4,26.6,22.1,28.2,20.8"/>
	</g>
	<g transform="translate(15.000000, 59.000000)">
		<path class="st6" d="M17.5,1c0.6,1.6,0.8,3.3,1.3,4.9c-2.1,0.2-4.3,0-6.5,0.1c-1.5,0.1-2.8-1.3-2.5-2.8c0.2-1.1,1.1-2,2.3-2
			C13.9,1.1,15.7,1.2,17.5,1"/>
		<path id="Fill-3" class="st6" d="M2.4,1.3C3.2,1,4,1.1,4.8,1.2c1.7,0.2,2.6,2.4,1.5,3.8C5.6,6.2,4,6.1,2.8,5.9
			C1.3,5.6,0.5,3.7,1.3,2.4C1.6,1.9,2,1.5,2.4,1.3"/>
	</g>
	<g transform="translate(29.000000, 24.000000)">
		<g transform="translate(4.101010, 0.087285)">
			<defs>
				<filter id="Adobe_OpacityMaskFilter_2_" filterUnits="userSpaceOnUse" x="1.1" y="1.1" width="15" height="3.9">
					<feColorMatrix  type="matrix" values="1 0 0 0 0  0 1 0 0 0  0 0 1 0 0  0 0 0 1 0"/>
				</filter>
			</defs>
			<mask maskUnits="userSpaceOnUse" x="1.1" y="1.1" width="15" height="3.9" id="mask-6_1_">
				<g class="st7">
					<polygon id="path-5_1_" class="st1" points="16.2,5 16.2,1.1 1.1,1.1 1.1,5 					"/>
				</g>
			</mask>
			<path class="st8" d="M2.4,1.3c0.4-0.1,0.7-0.2,1.1-0.1c3.6,0,7.2,0,10.7,0c1.1,0,2,1,1.9,2.1c0,1-0.9,1.9-1.9,1.8
				C10.5,5,6.8,5,3.1,5C2.4,5,1.6,4.6,1.3,4C0.9,3,1.3,1.6,2.4,1.3"/>
		</g>
		<path class="st6" d="M2.6,9c1-0.1,2.1,0,3.1,0c1.1,0,1.9,1.1,1.8,2.1c-0.1,0.9-0.9,1.7-1.8,1.8c-0.9,0-1.8,0-2.8,0
			c-1,0-1.8-0.8-1.9-1.8C0.9,10.1,1.6,9.2,2.6,9"/>
	</g>
	<g transform="translate(88.000000, 50.000000)">
		<path class="st9" d="M42.4,1.9c1.7-0.9,4,0.5,3.8,2.5c0.2,2.1-2.6,3.5-4.2,2.2C40.3,5.5,40.6,2.7,42.4,1.9"/>
		<path class="st10" d="M6.3,36.9c0.6-1.2,0.6-3.1,2.2-3.3c0.8,1.9,1.3,4.4,3.4,5.4c1.1,0.8,3.1,0.5,3.3,2.1c-1.2,0.9-2.8,1.2-4.1,2
			c-1.6,1.1-1.8,3.2-2.6,4.9c-2.1-0.5-1.5-3.3-2.9-4.6c-1.3-1.5-4.1-0.8-4.6-2.9C2.8,39.4,5.5,39.1,6.3,36.9"/>
	</g>
	<g transform="translate(0.000000, 30.000000)">
		<path class="st9" d="M4.2,3C4.2,2.3,4,1,5,1c1.2,0,0.8,1.6,0.8,2.4C5.4,4,4.2,3.8,4.2,3"/>
		<path class="st9" d="M1.5,4.2c0.8,0,2.3-0.4,2.3,0.7c0,1-1.3,0.8-2,0.8C1,5.8,0.7,4.5,1.5,4.2"/>
		<path class="st9" d="M6.7,4.2C7.4,4.2,9,3.8,9,5c0,1-1.3,0.8-2,0.8C6.2,5.8,5.9,4.6,6.7,4.2"/>
		<path class="st9" d="M4.7,6.2c1.5-0.3,1.5,2.1,0.6,2.7C3.9,9.3,3.9,6.8,4.7,6.2"/>
	</g>
	<path id="Fill-9" class="st6" d="M53.7,1.2c1.7-1,3.2,1.7,1.5,2.6C53.6,4.8,52,2.1,53.7,1.2"/>
	<path class="st10" d="M109.7,14.2c-1.8,0.9-0.2,3.8,1.5,2.7C113.1,16,111.4,13,109.7,14.2 M109.1,12.3c2.3-1.1,5.2,1,4.9,3.5
		c-0.1,2.6-3.6,4.2-5.6,2.5C106.2,16.8,106.7,13.2,109.1,12.3"/>
	<path class="st10" d="M4.1,58.1c1.4-0.4,2.9,1,2.9,2.4C7,61.8,5.8,63,4.5,63c-1.4,0.1-2.8-1.4-2.4-2.9c1.2-0.8,0.8,1.2,1.6,1.5
		c1.1,0.9,2.8-0.6,2.1-1.8C5.6,58.8,3.3,59.4,4.1,58.1"/>
	<g id="Group-13" transform="translate(29.000000, 81.000000)">
		<path id="Fill-11" class="st9" d="M4.1,3.5c0.4-0.6,0.3-2,1.4-1.9c0.5,2,1.9,3.5,3.9,3.9c0.3,1.1-1.2,1-1.8,1.4
			C6.2,7.3,6,8.9,5.5,10c-1.2,0.1-1-1.6-1.5-2.3C3.4,6.4,1,7.1,1,5.5C2.1,5,3.7,4.8,4.1,3.5"/>
	</g>
	<path class="st6" d="M102.5,37.1c1.7-0.2,3.5-0.1,5.2-0.1c1.4,0,2.6,0.9,3.1,2c0.6,1.5-0.4,3.3-2,3.8c-1.2,0.3-2.5,0.1-3.7,0.2
		c-1.5,0-3.4,0.1-4.4-1.1C99.2,40.3,100.2,37.5,102.5,37.1"/>
</g>
</svg>
