<svg id="Layer_1" data-name="Layer 1" xmlns="http://www.w3.org/2000/svg" viewBox="0 0 478.16 100"><defs><style>.cls-1{fill:#606;}</style></defs><title>logo-horizontal</title><g id="logo"><path class="cls-1" d="M9.62,78.75c-.36-.48-.71-1-1-1.47C8.91,77.78,9.26,78.27,9.62,78.75Z"/><path class="cls-1" d="M12.17,81.94c1,1.14,2,2.25,3.15,3.31a49.57,49.57,0,0,0,12.9,8.91c1.76.81,3.37,1.64,5.27,2.36.47.18,1,.37,1.46.54s1,.32,1.6.48,1.14.29,1.76.42a18.21,18.21,0,0,0,1.94.33,50,50,0,0,1-9.91-3.17A51,51,0,0,1,7.21,74.59a9.9,9.9,0,0,1-.63-1l-.43-.71-.43-.82c-.29-.57-.62-1.15-.87-1.71s-.51-1.06-.71-1.45a45.52,45.52,0,0,0,3.79,7.3c.65,1,1.34,2,2.08,3l-.31-.41c.77,1.06,1.59,2.09,2.47,3.1Z"/><path class="cls-1" d="M9.69,78.84l-.07-.09Z"/><path class="cls-1" d="M.71,56.08c-.09-.67-.17-1.36-.26-2,.14,1.25.3,2.65.59,4l-.18-1C.8,56.76.74,56.42.71,56.08Z"/><path class="cls-1" d="M46.12,98.14a44,44,0,0,0,11-.32,50.63,50.63,0,0,0,10.61-2.88A49.12,49.12,0,0,1,48.65,98.2C47.8,98.19,47,98.2,46.12,98.14Z"/><path class="cls-1" d="M25,91l-.14-.09Z"/><path class="cls-1" d="M24.81,90.86c-.46-.29-.91-.58-1.35-.88C23.9,90.28,24.35,90.57,24.81,90.86Z"/><path class="cls-1" d="M23.46,90c-.48-.33-1-.66-1.43-1C22.49,89.32,23,89.65,23.46,90Z"/><path class="cls-1" d="M30.14,93.76a45.85,45.85,0,0,0,9.2,3.08A47,47,0,0,1,25,91,44,44,0,0,0,30.14,93.76Z"/><path class="cls-1" d="M95.14,56.64c0-.84.16-1.71.19-2.13a57,57,0,0,0,.4-7.27c-.06-.41-.23-1.19-.3-2.07s-.2-1.75-.3-2.6-.29-1.68-.46-2.51a47.06,47.06,0,0,1,.08,18.13C94.87,57.64,95,57.12,95.14,56.64Z"/><path class="cls-1" d="M.48,44.15a42.43,42.43,0,0,1,2.35-9.58L2.46,36.3c.23-.51.6-1.69,1.11-2.94.12-.31.24-.63.37-1l.4-.92c.27-.6.5-1.16.73-1.6-.16.41-.32.85-.51,1.29L4,32.52l.81-1.8a58.65,58.65,0,0,0-2.12,6.19A50.53,50.53,0,0,0,1.31,43.8c-.08.54-.1,1.07-.15,1.57s-.1,1-.1,1.44c0,.91-.05,1.7,0,2.34.06,1.27.13,1.91.25,1.55.22-.7.22-4.33,1-8.87a54.88,54.88,0,0,1,1.8-7.17A47.7,47.7,0,0,1,7,27.79l-.32.68-.29.7-.6,1.42-.55,1.47c-.09.25-.19.49-.28.74s-.17.51-.25.76A51.15,51.15,0,0,0,3,39.83l-.3,1.61c-.11.54-.16,1.08-.24,1.62-.17,1.08-.23,2.17-.33,3.24a42.84,42.84,0,0,0,.07,6.32c0-.48,0-.91,0-1.33s0-.82.06-1.25,0-.88.06-1.4.07-1.11.1-1.8a46.18,46.18,0,0,1,1.83-10.3,34.85,34.85,0,0,1,3.7-9l.43-.81c.29-.54.53-1.08.84-1.62s.69-1,1-1.45.52-.76.79-1.11l2-2.69s0,.1-.11.25a14.93,14.93,0,0,1,1.06-1.32c.41-.46.8-1,1.13-1.36a.55.55,0,0,0,.34-.13A47.47,47.47,0,0,1,32.19,6l1.43-.55L35.07,5l.72-.24.73-.2L38,4.14c.83-.2,1.68-.4,2.54-.58l1.31-.22c.44-.07.88-.16,1.34-.2.9-.11,1.69-.33,2.11-.39a54.5,54.5,0,0,1,7.45.11l.93,0c.39,0,.83,0,1.25.07l1.6.33A45.61,45.61,0,0,1,66.39,6h0l1.21.47L68.83,7c.85.36,1.67.82,2.53,1.26.43.21.83.48,1.26.72a14.25,14.25,0,0,1,1.25.75c.81.53,1.63,1,2.39,1.6,1.29.91,2.48,1.85,3.55,2.75l.08.06,0,0,.78.7.75.74.75.74c.25.25.48.51.72.77a.48.48,0,0,1-.11-.33l-1.24-1.17,1.87,1.71c.2.25.42.5.62.77l.64.83.68.86.68.93a46.22,46.22,0,0,1,3.25,4.74c.47.84,1,1.66,1.39,2.52l.65,1.29.58,1.33c.17.28.1,0,.12,0a45.31,45.31,0,0,1,1.67,4.84,45.46,45.46,0,0,1,1.83,9.1c.12.73.17,1.47.28,2.2,0,.42,0,.94-.07,1.55s0,1.17,0,1.75,0,1.17-.07,1.76c0,.4-.07.83-.1,1.3s-.07,1-.14,1.51-.14,1.1-.22,1.69-.21,1.2-.31,1.83a46.86,46.86,0,0,1-2.32,8.19,8.62,8.62,0,0,1-.32,1c-.34.79-.7,1.56-1,2.32s-.75,1.47-1.14,2.17a45.43,45.43,0,0,1-4.27,6.55c-.18.23-.35.47-.53.69l-.54.64c-.35.41-.67.82-1,1.18-.67.71-1.24,1.38-1.77,1.88s-.55.65-.13.35c.21-.15.51-.38.86-.67l1.14-1c.42-.36.82-.76,1.2-1.14s.76-.73,1-1c.59-.63,1-1,.9-.84a27.5,27.5,0,0,1-5.24,6.36,49.1,49.1,0,0,1-4.48,3.69c-.84.65-1.78,1.24-2.73,1.88s-2,1.24-3.1,1.82c-2.41,1.29,1.81-.78,1.92-.8a11.09,11.09,0,0,1-1.28.87c-.79.42-1.58.84-2.4,1.2-.48.22-1,.45-1.44.65l-1.47.59.78-.3A40.21,40.21,0,0,0,72,92.24c-.5.3-1,.65-1.66,1s-1.32.69-2,1-1.34.61-2,.89a47.8,47.8,0,0,0,25.1-20.8,49.33,49.33,0,0,0,4.46-10A46.5,46.5,0,0,1,88.4,78.41a48.59,48.59,0,0,0,9.68-26.78c0,.53,0,1.07-.09,1.6s-.07,1.07-.13,1.6c-.14,1.06-.24,2.13-.45,3.18a47,47,0,0,1-1.5,6.25,48.55,48.55,0,0,0,2.23-11.57,50.68,50.68,0,0,0-.57-11.75,46.43,46.43,0,0,1,.33,16.55,47.89,47.89,0,0,0,.55-11.22c0-1.43-.23-2.86-.37-4.18s-.36-2.52-.55-3.5a58.53,58.53,0,0,1,1.23,9.59,50,50,0,0,0-4.1-18.78A51.07,51.07,0,0,1,98,39.82a45.14,45.14,0,0,1,.85,10.88c0-.42,0-.83,0-1.25s0-.84-.06-1.26A49.27,49.27,0,0,1,88.29,79.75a40.68,40.68,0,0,0,5.72-9,60.84,60.84,0,0,0,3.73-10.68,48.15,48.15,0,0,1-7.3,17.17A49.33,49.33,0,0,1,59,98a50.9,50.9,0,0,1-18.82.16l1.61.3c.54.1,1.09.16,1.63.23,1.08.17,2.18.24,3.27.33a52.48,52.48,0,0,0,13.15-.83c1.08-.24,2.17-.44,3.23-.75.53-.15,1.08-.28,1.61-.44l1.59-.51c-.8.24-1.65.57-2.55.81l-1.13.33a49.83,49.83,0,0,0,6.94-2.38c1-.44,2-.92,3-1.43a55,55,0,0,1-5.76,2.58,53.66,53.66,0,0,1-11.64,2.85c-.6.09-1.14.12-1.63.17l-1.3.13c-.77.06-1.34.09-1.73.13-.79.08-.91.15-.59.21a15.74,15.74,0,0,0,2,.13c.91,0,2,0,3-.14A50.83,50.83,0,0,0,81.09,89.33a49.26,49.26,0,0,0,16-21.93c.2-.5.35-1,.51-1.53s.33-1,.47-1.54c.26-1,.58-2.07.78-3.13l.33-1.58L99.41,58l.13-.8.09-.8.18-1.6a53.49,53.49,0,0,0-.44-12.89,52,52,0,0,0-1.78-7.81L97,32.29c-.22-.59-.44-1.14-.65-1.66l-.3-.75-.31-.67-.53-1.12A51.32,51.32,0,0,0,80.37,10.38l-1.21-.9-1.25-.85-.63-.43-.65-.4L75.33,7a49.68,49.68,0,0,0-5.5-2.78,50.29,50.29,0,0,0-5.89-2.14c-1-.27-2-.58-3.08-.79-.52-.11-1-.24-1.56-.34L57.72.68A46.76,46.76,0,0,0,46.08.14a48.19,48.19,0,0,0-11.66,2.3L33,2.92c-.47.16-.93.36-1.4.54s-.93.36-1.39.57l-1.36.62c-.46.2-.9.43-1.34.66L26.19,6l-1.29.75c-.43.25-.86.49-1.28.77l-1.25.81c-.42.26-.81.57-1.21.85s-.81.57-1.2.87L18.8,11c-.39.3-.76.62-1.13.95l-1.11,1-1,1c-.35.34-.71.67-1,1a50.35,50.35,0,0,0-7,9.09,52.22,52.22,0,0,0-4.66,10,53.39,53.39,0,0,0-2.72,20A63.42,63.42,0,0,1,.48,44.15ZM76.33,92A52.41,52.41,0,0,0,81,88.6,43.46,43.46,0,0,1,76.33,92ZM98,63.28c-.16.48-.3,1-.47,1.4L97,66l-.25.66-.28.65q-.27.65-.54,1.32a51,51,0,0,1-3.54,7,49.53,49.53,0,0,1-4.6,6.37c-.83,1-1.73,1.93-2.62,2.87l-1.39,1.33c-.45.45-.95.85-1.43,1.27l-1.2,1a47.1,47.1,0,0,0,4.24-3.87,48.81,48.81,0,0,1-6.28,5.39c-.56.38-1.1.79-1.67,1.15l-1.73,1.1-1.84,1c-.63.34-1.29.65-2,1,.39-.23.89-.5,1.44-.8s1.13-.65,1.69-1,1.08-.67,1.51-1a9.07,9.07,0,0,0,.94-.69l-.75.49c.27-.18.54-.35.81-.54l0,0a51.31,51.31,0,0,0,14.63-15,49.94,49.94,0,0,0,7.24-19.36A28.71,28.71,0,0,1,98,63.28ZM94.37,28.72c-.16-.36-.32-.73-.5-1.08A11.66,11.66,0,0,1,94.37,28.72ZM89.83,22A48.71,48.71,0,0,1,94,29.59l.39.88a49.14,49.14,0,0,1,3.7,20.11,50.27,50.27,0,0,0-.36-6.72,47.55,47.55,0,0,0-1.52-7.58,49.15,49.15,0,0,0-6.45-14c.26.35.54.74.82,1.15s.58.84.85,1.3l-.34-.59-.37-.57L90,22.44c-.5-.75-1-1.48-1.58-2.22S87.3,18.79,86.7,18.1c-.45-.5-.88-1-1.34-1.52A40.61,40.61,0,0,1,89.83,22ZM52.07.61c.79,0,1.58.12,2.37.17s1.29.15,1.93.22l.65.05c.25,0,.56.1.95.19a38.23,38.23,0,0,1,7.52,2,54.59,54.59,0,0,1,10.14,5,44.55,44.55,0,0,1,8.2,6.6c1.08,1.15.77.9.17.34l.89.93c-.4-.39-.78-.78-1.19-1.16l-1.24-1.1c.3.26,1,.88,1.53,1.33A50.09,50.09,0,0,0,70.34,5.4,48.77,48.77,0,0,0,54.48.86c.87.1,1.3.12,1.7.13C55.6.92,55,.83,54.42.78,53.62.73,52.83.66,52,.62L49.7.57C50.49.57,51.28.59,52.07.61Z"/><path class="cls-1" d="M62.32,97.68l.23-.07-.72.19Z"/><path class="cls-1" d="M86.23,77.33A45.27,45.27,0,0,0,91.8,67.8h0A45.85,45.85,0,0,1,76.64,86.7c1.28-.87,2.43-1.72,3.45-2.49A70.51,70.51,0,0,0,86.23,77.33Z"/><path class="cls-1" d="M19,86.12a45.77,45.77,0,0,0,13.68,8.33,46.22,46.22,0,0,0,6.18,1.86c1,.26,2.11.43,3.17.62.53.09,1.07.14,1.6.22s1.07.14,1.61.18A47.09,47.09,0,0,1,38,96a50.45,50.45,0,0,1-6.86-2.35,54.62,54.62,0,0,1-6.39-3.34A50,50,0,0,1,19,86.12Z"/><path class="cls-1" d="M66.58,92.17l-1.19.46-1.22.4c-.81.29-1.64.5-2.47.73.83-.21,1.67-.4,2.49-.66l1.23-.37,1.2-.43C66.57,92.27,66.29,92.32,66.58,92.17Z"/><path class="cls-1" d="M52.5,95.18c-.62,0-1.25,0-1.88,0s-1.26,0-1.89,0l.85.08.7.06C51,95.29,51.76,95.27,52.5,95.18Z"/><path class="cls-1" d="M27.64,89.49c.72.42,1.49.78,2.25,1.19a8.78,8.78,0,0,0,1,.37c-.93-.39-1.81-.87-2.71-1.32-.45-.23-.88-.49-1.31-.74s-.87-.49-1.28-.76l.5.33.53.31Z"/></g><path id="SvgjsG1384" class="cls-1" d="M48.25,25.38,49,27.76l-.64.2-.79-2.38Zm3.47,0,.64.2L51.58,28l-.64-.2Zm-4.11.21a6.73,6.73,0,0,1,1.88-7.09,5.46,5.46,0,0,0,1.09-6.77L50,10.66l1.07.62.26.16a4.51,4.51,0,0,1,1.93,2.91,4.46,4.46,0,0,1-.72,3.4,3.7,3.7,0,0,0-.35,3.62,5.83,5.83,0,0,1,.2,4.21l-.64-.2a5.22,5.22,0,0,0-.18-3.75A4.34,4.34,0,0,1,52,17.37a3.83,3.83,0,0,0-.24-4.68A6.09,6.09,0,0,1,50,19a6.09,6.09,0,0,0-1.7,6.41Zm-.67,5.53-.1-.65a1.93,1.93,0,0,0,1.63-2.19h0c0-.1,0-.2-.07-.3l.63-.2a2.79,2.79,0,0,1,.1.39,2.53,2.53,0,0,1-.47,1.92A2.64,2.64,0,0,1,46.94,31.12Zm6.09,0a2.58,2.58,0,0,1-2.1-3.32s0,0,0,0l.64.2a1.92,1.92,0,0,0,1.23,2.42h0l.3.07Zm-12.43-4,1.49,2-.54.39-1.49-2Zm3.29-1h.7v2.5h-.7Zm-3.83,1.44a6.73,6.73,0,0,1-.44-7.32,5.46,5.46,0,0,0-1.09-6.77l-.91-.83,1.22.27.3.08a4.54,4.54,0,0,1,2.75,2.18,4.43,4.43,0,0,1,.38,3.45,3.73,3.73,0,0,0,.8,3.56,5.92,5.92,0,0,1,1.51,3.95h-.67a5.22,5.22,0,0,0-1.35-3.51,4.37,4.37,0,0,1-.94-4.18A3.86,3.86,0,0,0,39.92,14a6.1,6.1,0,0,1,.29,6.52,6.08,6.08,0,0,0,.39,6.61ZM41.16,33l-.3-.59a1.92,1.92,0,0,0,1-1.12,1.88,1.88,0,0,0-.12-1.47,2.26,2.26,0,0,0-.16-.26l.54-.39A2.58,2.58,0,0,1,41.16,33Zm5.37-1.78A2.61,2.61,0,0,1,43.9,28.6h.67a2,2,0,0,0,2,1.93l.31,0,.1.65A2.73,2.73,0,0,1,46.53,31.19Zm-12.66-.1,2.06,1.47-.39.54-2.06-1.47Zm3.44-2.21.79,2.38-.64.2-.79-2.38Zm-3.84,2.75a6.76,6.76,0,0,1-2.71-6.83,5.49,5.49,0,0,0-3.16-6.1l-1.12-.51,1.24-.12.31,0a4.6,4.6,0,0,1,4.75,4.4,3.76,3.76,0,0,0,1.88,3.14,6,6,0,0,1,2.67,3.29l-.64.2a5.35,5.35,0,0,0-2.38-2.93,4.41,4.41,0,0,1-2.21-3.69,3.9,3.9,0,0,0-3-3.65,6.12,6.12,0,0,1,2.32,6.11,6.09,6.09,0,0,0,2.45,6.16Zm2.77,4.87L35.76,36a1.91,1.91,0,0,0,0-2.7l0,0-.23-.2.39-.53a2.58,2.58,0,0,1,.59,3.6,3,3,0,0,1-.27.33ZM40,33.25A2.74,2.74,0,0,1,38.77,33a2.61,2.61,0,0,1-1.31-1.51l.64-.2a2,2,0,0,0,2.46,1.24,1.39,1.39,0,0,0,.28-.12l.3.59a2.5,2.5,0,0,1-.38.15A2.36,2.36,0,0,1,40,33.25ZM28.72,36.92l2.42.77-.21.63-2.42-.77Zm2.58-3.16,1.49,2-.54.39-1.49-2Zm-2.79,3.79a6.83,6.83,0,0,1-4.73-5.67A5.55,5.55,0,0,0,18.86,27l-1.23-.14,1.14-.49.29-.11A4.65,4.65,0,0,1,25,29a3.8,3.8,0,0,0,2.77,2.41,6.06,6.06,0,0,1,3.58,2.32l-.55.39a5.41,5.41,0,0,0-3.19-2.06,4.46,4.46,0,0,1-3.26-2.84,3.94,3.94,0,0,0-4-2.56,6.19,6.19,0,0,1,4.13,5.1,6.19,6.19,0,0,0,4.27,5.12Zm4.15,3.78-.6-.3a1.88,1.88,0,0,0,.12-1.47,1.92,1.92,0,0,0-1-1.12,1.69,1.69,0,0,0-.28-.12l.21-.63a1.8,1.8,0,0,1,.38.16,2.61,2.61,0,0,1,1.31,1.51A2.56,2.56,0,0,1,32.66,41.33Zm1.72-4.13-.42,0a2.65,2.65,0,0,1-1.72-1l.54-.39a2,2,0,0,0,2.73.43l.23-.2.48.47a2.58,2.58,0,0,1-1.84.75ZM25.69,44h2.5v.7h-2.5Zm1.42-3.76,2.06,1.47-.39.54-2.06-1.47ZM25.69,44.7a6.91,6.91,0,0,1-6.27-4,5.64,5.64,0,0,0-6.21-3.11L12,37.88l.93-.81.24-.19a4.66,4.66,0,0,1,6.47.82A3.84,3.84,0,0,0,23,39.15a6.13,6.13,0,0,1,4.13,1.11l-.39.53a5.48,5.48,0,0,0-3.68-1,4.52,4.52,0,0,1-4-1.7,3.88,3.88,0,0,0-2.62-1.47,4,4,0,0,0-2,.25A6.26,6.26,0,0,1,20,40.48a6.28,6.28,0,0,0,5.66,3.57v.65ZM30.79,47l-.66-.1a1.93,1.93,0,0,0-1.63-2.2h0a1.56,1.56,0,0,0-.31,0V44a2.73,2.73,0,0,1,.41,0,2.59,2.59,0,0,1,2.19,3Zm-.48-4.28a2.6,2.6,0,0,1-1.54-.5l.39-.53a2,2,0,0,0,2.74-.43,2.26,2.26,0,0,0,.16-.26l.6.3a2.63,2.63,0,0,1-1.94,1.38A1.84,1.84,0,0,1,30.31,42.74ZM27.37,51l.21.63-2.42.77L25,51.72Zm-2.2-3.27,2.42.77-.21.63L25,48.31Zm-2.13,5A7.05,7.05,0,0,1,18,50.5a5.67,5.67,0,0,0-6.88-1.07L10,50,10.62,49c.05-.09.11-.17.17-.26a4.6,4.6,0,0,1,3-1.9,4.66,4.66,0,0,1,3.46.71,3.89,3.89,0,0,0,3.68.35,6.13,6.13,0,0,1,4.28-.2l-.21.63a5.44,5.44,0,0,0-3.81.18,4.55,4.55,0,0,1-4.33-.41,4,4,0,0,0-4.76.24,6.32,6.32,0,0,1,6.39,1.74A6.32,6.32,0,0,0,25,51.73l.21.63A7.26,7.26,0,0,1,23,52.68Zm7.08.43a2,2,0,0,0-2.28-1.59l-.26.06L27.37,51a2.65,2.65,0,0,1,3.33,1.71c0,.11.06.23.09.34ZM28.18,49.2a2.45,2.45,0,0,1-.81-.13l.21-.63a2,2,0,0,0,2.47-1.24,1.63,1.63,0,0,0,.07-.3l.66.1a2,2,0,0,1-.1.4A2.61,2.61,0,0,1,28.18,49.2Zm.6,8.58.4.54-2.06,1.47-.39-.53ZM25.69,55.3h2.5V56h-2.5ZM12,62.19l.27-1.2a2.45,2.45,0,0,1,.08-.29,4.63,4.63,0,0,1,5.72-3.08,3.85,3.85,0,0,0,3.61-.79,6.14,6.14,0,0,1,4-1.49V56a5.43,5.43,0,0,0-3.57,1.32,4.55,4.55,0,0,1-4.25.93,4,4,0,0,0-4.45,1.67A6.34,6.34,0,0,1,20,59.64a6.33,6.33,0,0,0,6.72-.39l.39.53a7,7,0,0,1-7.44.43,5.67,5.67,0,0,0-6.88,1.08ZM32.06,59a2,2,0,0,0-2.63-.84,2.26,2.26,0,0,0-.26.16l-.39-.53a2.5,2.5,0,0,1,.35-.21,2.64,2.64,0,0,1,2-.15,2.61,2.61,0,0,1,1.53,1.29Zm-3.87-3v-.66a1.93,1.93,0,0,0,2-1.89c0-.11,0-.22,0-.33l.66-.1a2.69,2.69,0,0,1,0,.4A2.61,2.61,0,0,1,28.19,56Zm4.06,7.85.54.39-1.5,2-.54-.39Zm-1.32-2.14.21.63-2.42.77-.21-.63ZM17.64,73.16l-.12-1.22c0-.1,0-.2,0-.3A4.57,4.57,0,0,1,22,67a3.84,3.84,0,0,0,3.19-1.85,6,6,0,0,1,3.35-2.64l.21.63a5.42,5.42,0,0,0-3,2.34A4.47,4.47,0,0,1,22,67.62a3.93,3.93,0,0,0-3.71,2.94,6.31,6.31,0,0,1,6.21-2.28,6.29,6.29,0,0,0,6.26-2.41l.54.39a7,7,0,0,1-6.94,2.67A5.61,5.61,0,0,0,18.15,72Zm15.15-8.92-.54-.39a2.61,2.61,0,0,1,.27-.31,2.66,2.66,0,0,1,3.72,0l-.48.47A2,2,0,0,0,33,64,2.2,2.2,0,0,0,32.79,64.24Zm-1.66-1.91-.21-.63a1.93,1.93,0,0,0,1.27-2.4v0a1.39,1.39,0,0,0-.12-.28l.6-.3a3,3,0,0,1,.16.37,2.59,2.59,0,0,1-1.67,3.26Zm6.33,6.24.64.2-.78,2.38-.64-.2Zm-1.93-1.64.39.53-2.06,1.47-.39-.53Zm-9,14.93L26,80.74c0-.09-.08-.19-.11-.28a4.54,4.54,0,0,1,2.73-5.79l.05,0a3.78,3.78,0,0,0,2.45-2.73,6,6,0,0,1,2.36-3.52l.39.53a5.35,5.35,0,0,0-2.1,3.13,4.45,4.45,0,0,1-2.88,3.21,3.88,3.88,0,0,0-2.6,3.93,6.26,6.26,0,0,1,5.19-4.06,6.22,6.22,0,0,0,5.2-4.2l.64.2a6.91,6.91,0,0,1-5.76,4.65,5.56,5.56,0,0,0-4.92,4.85ZM38.1,68.77l-.64-.2a1.8,1.8,0,0,1,.16-.38,2.65,2.65,0,0,1,3.54-1.13l-.3.59a2,2,0,0,0-2.64.85,1.11,1.11,0,0,0-.12.27Zm-2.18-1.31-.39-.53A1.91,1.91,0,0,0,36,64.27s0,0,0,0a2.2,2.2,0,0,0-.2-.23l.47-.47a2.61,2.61,0,0,1,.27.31A2.57,2.57,0,0,1,36,67.44Zm8,4h.7V74h-.7Zm-2.34-1,.54.39-1.49,2-.54-.39Zm-3.91,17-.83-.92-.2-.24A4.48,4.48,0,0,1,37.43,80a3.71,3.71,0,0,0,1.47-3.34A5.92,5.92,0,0,1,40,72.56l.54.39a5.27,5.27,0,0,0-1,3.62,4.39,4.39,0,0,1-1.73,3.93,3.81,3.81,0,0,0-1.5,2.57,3.72,3.72,0,0,0,.26,2,6.14,6.14,0,0,1,3.66-5.44A6.16,6.16,0,0,0,43.88,74h.67a6.8,6.8,0,0,1-4,6.17,5.48,5.48,0,0,0-3.16,6.11Zm6.93-16H43.9a2.83,2.83,0,0,1,0-.41,2.63,2.63,0,0,1,3-2.15l-.11.65a2,2,0,0,0-2.24,1.6C44.58,71.3,44.58,71.4,44.57,71.5Zm-2.48-.62-.54-.39a1.9,1.9,0,0,0-.4-2.67l0,0a2.26,2.26,0,0,0-.26-.16l.3-.59a2.5,2.5,0,0,1,.35.21,2.56,2.56,0,0,1,.61,3.57A.09.09,0,0,1,42.09,70.88Zm9.48,1.18.79,2.38-.64.2-.79-2.38Zm-3.17,0,.64.2-.78,2.38-.64-.2ZM50,89.36l-1.07-.62-.26-.16a4.49,4.49,0,0,1-1.26-6.23l.05-.07a3.7,3.7,0,0,0,.35-3.62,5.83,5.83,0,0,1-.2-4.21l.64.2a5.22,5.22,0,0,0,.18,3.75A4.34,4.34,0,0,1,48,82.66a3.85,3.85,0,0,0,.24,4.68A6.13,6.13,0,0,1,50,81.05a6.09,6.09,0,0,0,1.7-6.41l.64-.2a6.73,6.73,0,0,1-1.88,7.09,5.46,5.46,0,0,0-1.09,6.77Zm.94-17.1a2.6,2.6,0,0,1-.1-.4,2.53,2.53,0,0,1,.47-1.92,2.59,2.59,0,0,1,1.72-1l.11.65a2,2,0,0,0-1.28.77,1.88,1.88,0,0,0-.35,1.43c0,.1,0,.2.07.3Zm-1.91,0-.64-.2a1.88,1.88,0,0,0-.12-1.47,2,2,0,0,0-1.14-1l-.3-.07.1-.65a2.57,2.57,0,0,1,1.93,1.38A2.47,2.47,0,0,1,49,72.26Zm9.39-1.76,1.49,2-.54.39-1.49-2Zm-3,1h.7V74h-.7Zm7,16-1.22-.27-.3-.08A4.58,4.58,0,0,1,58.1,85a4.43,4.43,0,0,1-.38-3.45,3.73,3.73,0,0,0-.8-3.56,5.92,5.92,0,0,1-1.51-4h.67a5.22,5.22,0,0,0,1.35,3.51,4.37,4.37,0,0,1,.94,4.18,3.76,3.76,0,0,0,.33,2.95,3.92,3.92,0,0,0,1.37,1.43,6.08,6.08,0,0,1-.29-6.52,6.08,6.08,0,0,0-.39-6.61l.54-.39a6.73,6.73,0,0,1,.44,7.32,5.46,5.46,0,0,0,1.09,6.77Zm-4.49-16.6a2,2,0,0,1-.21-.35,2.53,2.53,0,0,1-.16-2A2.61,2.61,0,0,1,58.82,67l.3.59a1.92,1.92,0,0,0-1,1.12,1.88,1.88,0,0,0,.12,1.47,2.26,2.26,0,0,0,.16.26Zm-1.81.62H55.4a2,2,0,0,0-2-1.93l-.31,0L53,68.94l.41,0A2.61,2.61,0,0,1,56.07,71.5Zm8.37-4.57L66.5,68.4l-.39.53-2.06-1.47Zm-1.93,1.63.78,2.38-.64.2-.78-2.38ZM71.83,82a4.59,4.59,0,0,1-4.61-4.4,3.76,3.76,0,0,0-1.88-3.14,6,6,0,0,1-2.68-3.29l.64-.2a5.32,5.32,0,0,0,2.38,2.93,4.41,4.41,0,0,1,2.21,3.68,3.88,3.88,0,0,0,3,3.65,6.12,6.12,0,0,1-2.32-6.11,6.09,6.09,0,0,0-2.45-6.16l.39-.53a6.76,6.76,0,0,1,2.71,6.83,5.48,5.48,0,0,0,3.17,6.1l1.13.51L72.27,82,72,82ZM64.05,67.46a3.88,3.88,0,0,1-.31-.26,2.57,2.57,0,0,1-.05-3.62l.05,0,.48.47a1.91,1.91,0,0,0,0,2.69l0,0,.23.2Zm-2.18,1.31a2,2,0,0,0-2.47-1.24,1.39,1.39,0,0,0-.28.12l-.31-.59a2.5,2.5,0,0,1,.38-.15,2.7,2.7,0,0,1,2,.15,2.61,2.61,0,0,1,1.31,1.51Zm7.18-7.07,2.42.77-.21.63-2.42-.77Zm-1.33,2.15,1.5,2-.54.39-1.5-2ZM79.38,74A4.61,4.61,0,0,1,75,71a3.8,3.8,0,0,0-2.77-2.41,6,6,0,0,1-3.58-2.32l.54-.39a5.41,5.41,0,0,0,3.19,2.06,4.45,4.45,0,0,1,3.26,2.83,4,4,0,0,0,4,2.56,6.19,6.19,0,0,1-4.13-5.1,6.19,6.19,0,0,0-4.27-5.12l.2-.63a6.86,6.86,0,0,1,4.73,5.67A5.56,5.56,0,0,0,81.12,73l1.24.14-1.14.49-.29.11A4.82,4.82,0,0,1,79.38,74ZM68.84,62.33a2.5,2.5,0,0,1-.38-.15,2.62,2.62,0,0,1-1.31-1.5,2.51,2.51,0,0,1,.16-2l.6.3a1.92,1.92,0,0,0,.84,2.58h0a1.69,1.69,0,0,0,.28.12Zm-1.66,1.91a2,2,0,0,0-2.74-.42,1.43,1.43,0,0,0-.23.2l-.48-.47a2.51,2.51,0,0,1,.31-.26,2.65,2.65,0,0,1,3.67.57Zm4.61-8.94h2.5V56h-2.5Zm-.59,2.48,2.06,1.47-.39.53-2.06-1.47ZM84,64.11a4,4,0,0,1-.6,0,4.6,4.6,0,0,1-3.06-1.73A3.83,3.83,0,0,0,77,60.89a6.12,6.12,0,0,1-4.13-1.11l.39-.53a5.48,5.48,0,0,0,3.68,1,4.52,4.52,0,0,1,4,1.7,3.93,3.93,0,0,0,2.62,1.48,4.1,4.1,0,0,0,2-.25A6.26,6.26,0,0,1,80,59.57,6.27,6.27,0,0,0,74.31,56v-.66a6.93,6.93,0,0,1,6.27,3.95,5.63,5.63,0,0,0,6.21,3.11L88,62.16l-.94.81-.24.19A4.73,4.73,0,0,1,84,64.11ZM71.79,56a2.83,2.83,0,0,1-.41,0A2.6,2.6,0,0,1,69.19,53h0l.66.1a1.93,1.93,0,0,0,1.62,2.2h0a1.56,1.56,0,0,0,.31,0Zm-3.88,3-.6-.3a2.56,2.56,0,0,1,.22-.35,2.65,2.65,0,0,1,3.67-.57l-.39.53a2,2,0,0,0-2.74.43A2.26,2.26,0,0,0,67.91,59Zm6.9-11.32.21.63-2.42.77-.21-.63ZM72.6,51l2.42.77-.21.63-2.42-.77Zm12.77,2.34a4.62,4.62,0,0,1-2.59-.79,3.91,3.91,0,0,0-3.69-.35,6.13,6.13,0,0,1-4.28.2l.21-.63a5.44,5.44,0,0,0,3.81-.18,4.55,4.55,0,0,1,4.33.41,4,4,0,0,0,4.76-.24A6.34,6.34,0,0,1,81.53,50,6.32,6.32,0,0,0,75,48.3l-.21-.63A7,7,0,0,1,82,49.53a5.67,5.67,0,0,0,6.88,1.07L90,50l-.63,1.06-.16.26a4.6,4.6,0,0,1-2.95,1.9A6.94,6.94,0,0,1,85.37,53.29ZM71.78,49.2A2.63,2.63,0,0,1,69.19,47l.66-.1a1.91,1.91,0,0,0,.78,1.26,2,2,0,0,0,1.46.34l.3-.07.21.63a2.59,2.59,0,0,1-.4.09A2,2,0,0,1,71.78,49.2Zm-1.92,3.91L69.2,53a2,2,0,0,1,.1-.4A2.63,2.63,0,0,1,72.61,51l-.21.63a2,2,0,0,0-2.47,1.24A1,1,0,0,0,69.86,53.11Zm3-12.87.39.53L71.2,42.24l-.39-.54ZM71.79,44h2.5v.7h-2.5Zm2.5.69V44a5.44,5.44,0,0,0,3.57-1.33,4.56,4.56,0,0,1,4.25-.93,4,4,0,0,0,3-.32,4,4,0,0,0,1.46-1.35,6.38,6.38,0,0,1-6.63.29,6.33,6.33,0,0,0-6.72.39l-.39-.53a7,7,0,0,1,7.44-.43,5.67,5.67,0,0,0,6.88-1.07l.85-.91L87.72,39c0,.1,0,.2-.08.3A4.51,4.51,0,0,1,85.43,42a4.66,4.66,0,0,1-3.51.38,3.85,3.85,0,0,0-3.61.79A6.23,6.23,0,0,1,74.29,44.69Zm-4.63-1.95a2.45,2.45,0,0,1-.81-.13,2.61,2.61,0,0,1-1.53-1.29l.6-.3a2,2,0,0,0,1.14,1,2,2,0,0,0,1.5-.12,2.26,2.26,0,0,0,.26-.16l.39.54a2.5,2.5,0,0,1-.35.21A2.69,2.69,0,0,1,69.66,42.74ZM69.19,47a2.73,2.73,0,0,1,0-.41A2.61,2.61,0,0,1,71.79,44v.66a1.92,1.92,0,0,0-2,1.88c0,.12,0,.23,0,.35Zm-.52-13.25.54.39-1.5,2-.54-.39Zm2.59,3.15.21.63-2.42.77-.21-.63Zm.21.63-.21-.63a5.42,5.42,0,0,0,3-2.34A4.47,4.47,0,0,1,78,32.41a3.93,3.93,0,0,0,2.75-1.22,3.76,3.76,0,0,0,1-1.73,6.32,6.32,0,0,1-6.21,2.29,6.31,6.31,0,0,0-6.27,2.41l-.54-.39a7,7,0,0,1,6.94-2.67A5.62,5.62,0,0,0,81.81,28l.52-1.11.12,1.22c0,.1,0,.2,0,.3a4.46,4.46,0,0,1-1.25,3.25A4.61,4.61,0,0,1,78,33.07a3.84,3.84,0,0,0-3.19,1.85A6,6,0,0,1,71.47,37.55Zm-5.87-.31a2.64,2.64,0,0,1-1.86-.76l.48-.47A2,2,0,0,0,67,36a2.2,2.2,0,0,0,.2-.23l.54.39a2.65,2.65,0,0,1-2.13,1.07Zm1.71,4.09c-.06-.12-.11-.25-.16-.38a2.53,2.53,0,0,1,.16-2,2.61,2.61,0,0,1,1.53-1.29l.21.63a2,2,0,0,0-1.14,1,1.93,1.93,0,0,0,0,1.75ZM62.65,28.88l.64.2-.79,2.38-.64-.21Zm3.45,2.21.39.53-2,1.48-.4-.53Zm.4.54-.39-.54A5.28,5.28,0,0,0,68.2,28a4.45,4.45,0,0,1,2.88-3.21,3.89,3.89,0,0,0,2.24-2,3.81,3.81,0,0,0,.37-1.94,6.26,6.26,0,0,1-5.19,4.06,6.22,6.22,0,0,0-5.2,4.2l-.64-.21a6.9,6.9,0,0,1,5.76-4.65,5.56,5.56,0,0,0,4.92-4.85l.14-1.22.5,1.12c0,.09.08.19.11.28A4.45,4.45,0,0,1,73.92,23a4.6,4.6,0,0,1-2.61,2.33,3.79,3.79,0,0,0-2.45,2.73A6,6,0,0,1,66.5,31.63ZM60,33.25A2.74,2.74,0,0,1,58.81,33l.3-.59a2,2,0,0,0,2.64-.84,1.39,1.39,0,0,0,.12-.28l.64.21a1.73,1.73,0,0,1-.16.37A2.62,2.62,0,0,1,60,33.25Zm3.74,3.24a2.61,2.61,0,0,1-.27-.31A2.57,2.57,0,0,1,64,32.59l0,0,.4.53A1.91,1.91,0,0,0,64,35.75l0,0a2.2,2.2,0,0,0,.2.23ZM55.39,26.1h.7v2.5h-.7Zm4,1,.54.39-1.5,2-.54-.39Zm.55.42-.54-.39a5.27,5.27,0,0,0,1-3.62,4.36,4.36,0,0,1,1.73-3.92,3.85,3.85,0,0,0,1.24-4.53,6.17,6.17,0,0,1-3.66,5.44,6.17,6.17,0,0,0-3.63,5.58H55.4a6.78,6.78,0,0,1,4-6.17,5.48,5.48,0,0,0,3.16-6.11l-.24-1.2.82.92.2.23a4.5,4.5,0,0,1-.76,6.31l-.07.05a3.72,3.72,0,0,0-1.47,3.34A5.93,5.93,0,0,1,59.92,27.54Zm-6.48,3.65a2.73,2.73,0,0,1-.41,0l.11-.65a2,2,0,0,0,2.24-1.6,1.53,1.53,0,0,0,0-.3h.67a2.83,2.83,0,0,1,0,.41A2.65,2.65,0,0,1,53.44,31.19ZM58.81,33a2.5,2.5,0,0,1-.35-.21,2.55,2.55,0,0,1-.61-3.57l0,0,.54.39A1.88,1.88,0,0,0,58.07,31a1.94,1.94,0,0,0,1,1.42Z"/><path class="cls-1" d="M139.27,56.44a10.27,10.27,0,0,1-3.94,8.49q-3.95,3.13-10.47,3.14-7.86,0-12-1.73v-3a30.41,30.41,0,0,0,11.8,2q5.28,0,8.37-2.41a7.69,7.69,0,0,0,3.09-6.35,7.23,7.23,0,0,0-1-4,9.23,9.23,0,0,0-3.34-2.92,40.71,40.71,0,0,0-6.79-2.84q-6.57-2.27-9.07-4.88a9.71,9.71,0,0,1-2.51-7,9.6,9.6,0,0,1,3.77-7.83,14.91,14.91,0,0,1,9.68-3,28.44,28.44,0,0,1,11.34,2.29l-1.08,2.58a26.4,26.4,0,0,0-10.2-2.23,12,12,0,0,0-7.56,2.2,7.17,7.17,0,0,0-2.81,6,7.88,7.88,0,0,0,.86,3.9,7.94,7.94,0,0,0,2.83,2.74,39.09,39.09,0,0,0,6.74,2.92,36.45,36.45,0,0,1,7.53,3.35,10.66,10.66,0,0,1,3.67,3.69A10,10,0,0,1,139.27,56.44Z"/><path class="cls-1" d="M150.11,35.64V56.26c0,3.2.68,5.53,2,7s3.44,2.18,6.27,2.18q5.68,0,8.37-2.87t2.68-9.35V35.64h2.87V67.48h-2.46l-.53-4.39h-.18q-3.1,5-11,5-10.87,0-10.87-11.63V35.64Z"/><path class="cls-1" d="M205.19,67.48V46.83q0-4.81-2-7c-1.35-1.46-3.44-2.18-6.27-2.18q-5.72,0-8.36,2.88t-2.66,9.36V67.48H183V35.64h2.46L186,40h.18q3.1-5,11-5,10.85,0,10.84,11.63V67.48Z"/><path class="cls-1" d="M238.12,59.19a7.58,7.58,0,0,1-3.25,6.58q-3.26,2.3-9.23,2.3-6.39,0-10.14-2V63a22.38,22.38,0,0,0,10.14,2.4q4.71,0,7.16-1.57a4.76,4.76,0,0,0,2.45-4.17,5.08,5.08,0,0,0-1.95-4,21.37,21.37,0,0,0-6.4-3.23,36.4,36.4,0,0,1-6.71-3,9.39,9.39,0,0,1-2.92-2.81,7.12,7.12,0,0,1-1-3.83,6.52,6.52,0,0,1,3-5.65q3-2.09,8.39-2.08A25.06,25.06,0,0,1,237.47,37l-1.08,2.64a22.88,22.88,0,0,0-8.7-1.93A12.57,12.57,0,0,0,221.51,39a4,4,0,0,0-2.29,3.57,4.93,4.93,0,0,0,1.77,4q1.78,1.5,6.93,3.34a34.5,34.5,0,0,1,6.27,2.8,9.13,9.13,0,0,1,2.95,2.83A6.93,6.93,0,0,1,238.12,59.19Z"/><path class="cls-1" d="M268.53,67.48V46.83q0-4.81-2-7c-1.35-1.46-3.44-2.18-6.27-2.18q-5.72,0-8.37,2.88c-1.76,1.93-2.65,5.05-2.65,9.36V67.48h-2.9V21.9h2.9V36.4l-.14,4.07h.2a10.74,10.74,0,0,1,4.51-4.16A15.81,15.81,0,0,1,260.56,35q10.85,0,10.84,11.63V67.48Z"/><path class="cls-1" d="M308.05,51.51q0,7.8-3.78,12.18t-10.43,4.38a13.57,13.57,0,0,1-7.38-2,12.94,12.94,0,0,1-4.89-5.81,20.92,20.92,0,0,1-1.7-8.73q0-7.78,3.78-12.14T294,35q6.56,0,10.3,4.41T308.05,51.51Zm-25.14,0q0,6.57,2.89,10.24a10.89,10.89,0,0,0,16.32,0Q305,58.08,305,51.51t-2.91-10.22a9.9,9.9,0,0,0-8.19-3.63,9.72,9.72,0,0,0-8.13,3.62Q282.92,44.9,282.91,51.51Z"/><path class="cls-1" d="M342.33,67.48l-7-21.3q-.67-2.16-1.73-6.36h-.18L332.84,42l-1.32,4.25-7.09,21.24h-2.87l-9.11-31.84h3.1l5.1,18.45q1.78,6.85,2.34,10.08h.18q1.72-6.86,2.52-9.11l6.56-19.42h2.64L341.13,55q2.1,6.89,2.57,9.11h.18q.24-1.9,2.34-10.19l4.87-18.28H354l-8.65,31.84Z"/><path class="cls-1" d="M373.12,68.07q-6.94,0-10.83-4.28t-3.88-12q0-7.62,3.75-12.2A12.37,12.37,0,0,1,372.27,35,10.92,10.92,0,0,1,381.15,39q3.24,3.91,3.25,10.66V52H361.46q.06,6.57,3.06,10t8.6,3.46a27,27,0,0,0,4.79-.38,28.72,28.72,0,0,0,5.23-1.64v2.64a23.28,23.28,0,0,1-5,1.59A27.14,27.14,0,0,1,373.12,68.07Zm-.85-30.47a9.53,9.53,0,0,0-7.38,3q-2.79,3-3.26,8.75h19.69c0-3.7-.8-6.58-2.4-8.66A7.92,7.92,0,0,0,372.27,37.6Z"/><path class="cls-1" d="M405.73,35a25.24,25.24,0,0,1,4.33.41l-.55,2.78a17.13,17.13,0,0,0-4.14-.49,8,8,0,0,0-6.67,3.45,14.1,14.1,0,0,0-2.61,8.73V67.48h-2.9V35.64h2.46l.29,5.74h.21a13.36,13.36,0,0,1,4.19-4.94A9.78,9.78,0,0,1,405.73,35Z"/><path class="cls-1" d="M416,65.2q0-2.88,2.34-2.88c1.61,0,2.41,1,2.41,2.88s-.8,2.87-2.41,2.87S416,67.11,416,65.2Z"/><path class="cls-1" d="M430.39,26.79c0-1.88.62-2.81,1.85-2.81a1.62,1.62,0,0,1,1.42.73,3.61,3.61,0,0,1,.51,2.08,3.7,3.7,0,0,1-.51,2.08,1.61,1.61,0,0,1-1.42.76C431,29.63,430.39,28.68,430.39,26.79Zm3.31,40.69h-2.9V35.64h2.9Z"/><path class="cls-1" d="M470.71,51.51q0,7.8-3.78,12.18T456.5,68.07a13.52,13.52,0,0,1-7.38-2,13,13,0,0,1-4.9-5.81,21.08,21.08,0,0,1-1.7-8.73q0-7.78,3.78-12.14T456.67,35q6.57,0,10.3,4.41T470.71,51.51Zm-25.14,0q0,6.57,2.89,10.24a10.88,10.88,0,0,0,16.31,0q2.89-3.68,2.89-10.24t-2.92-10.22a9.89,9.89,0,0,0-8.18-3.63,9.72,9.72,0,0,0-8.13,3.62Q445.56,44.9,445.57,51.51Z"/></svg>