<?xml version="1.0" standalone="no"?>
<!DOCTYPE svg PUBLIC "-//W3C//DTD SVG 20010904//EN"
 "http://www.w3.org/TR/2001/REC-SVG-20010904/DTD/svg10.dtd">
<svg version="1.0" xmlns="http://www.w3.org/2000/svg"
 width="260.000000pt" height="260.000000pt" viewBox="0 0 260.000000 260.000000"
 preserveAspectRatio="xMidYMid meet">
<metadata>
Created by potrace 1.11, written by Peter Selinger 2001-2013
</metadata>
<g transform="translate(0.000000,260.000000) scale(0.100000,-0.100000)"
fill="#000000" stroke="none">
<path d="M915 2536 c-17 -12 -20 -28 -21 -128 -1 -62 2 -121 7 -130 12 -23 44
-31 69 -18 19 10 20 20 20 140 0 118 -2 130 -19 140 -26 13 -33 13 -56 -4z"/>
<path d="M387 2323 c-23 -6 -40 -49 -28 -71 5 -9 45 -52 89 -94 62 -61 84 -76
102 -73 13 3 27 10 32 17 20 32 5 57 -81 141 -49 48 -90 86 -92 86 -2 -1 -12
-3 -22 -6z"/>
<path d="M1373 2237 c-56 -58 -81 -90 -78 -103 2 -10 4 -23 4 -27 2 -15 46
-25 65 -15 34 18 166 159 166 178 0 25 -26 50 -53 50 -14 0 -51 -30 -104 -83z"/>
<path d="M807 2140 c-133 -47 -222 -138 -267 -270 -18 -54 -21 -80 -17 -153 4
-76 10 -99 42 -163 20 -42 35 -77 33 -78 -69 -48 -109 -82 -134 -113 -36 -44
-84 -135 -84 -157 0 -9 -15 -19 -37 -26 -130 -35 -231 -185 -208 -309 18 -100
82 -184 169 -222 l51 -23 815 -1 c891 -1 891 -1 1010 57 81 39 186 143 224
220 74 152 75 332 2 476 -72 141 -212 244 -371 273 -62 12 -67 15 -105 64
-128 165 -334 261 -549 253 -50 -2 -91 0 -91 3 0 4 -21 30 -46 58 -31 34 -70
63 -121 88 -68 33 -85 37 -167 40 -72 3 -103 -1 -149 -17z m274 -118 c46 -21
99 -63 98 -78 0 -5 -37 -27 -82 -48 -115 -56 -237 -177 -293 -292 -33 -69 -43
-82 -67 -86 -22 -4 -32 2 -54 31 -111 146 -58 375 107 465 87 47 198 51 291 8z
m454 -167 c137 -35 296 -148 351 -251 20 -36 28 -40 104 -48 191 -21 336 -157
371 -349 39 -214 -110 -429 -329 -476 -37 -8 -297 -11 -850 -11 -752 0 -799 1
-837 19 -99 45 -138 156 -89 252 21 42 80 87 121 94 69 11 78 19 95 81 40 142
157 240 307 258 55 7 66 17 86 75 55 165 228 316 414 360 59 14 193 12 256 -4z"/>
<path d="M140 1761 c-14 -28 -13 -46 6 -62 19 -15 228 -22 256 -8 23 12 31 44
18 69 -10 19 -20 20 -140 20 -118 0 -130 -2 -140 -19z"/>
<path d="M855 564 c-22 -23 -16 -41 54 -164 32 -58 88 -156 123 -219 38 -67
73 -117 85 -122 26 -10 63 15 63 43 0 17 -167 328 -237 441 -26 41 -59 49 -88
21z"/>
<path d="M1256 559 c-19 -28 -21 -24 124 -282 66 -118 124 -210 135 -215 31
-14 65 6 65 38 0 23 -213 421 -249 464 -19 23 -57 20 -75 -5z"/>
<path d="M1662 568 c-7 -7 -12 -21 -12 -31 0 -25 234 -447 260 -469 34 -28 82
0 75 42 -4 22 -245 453 -259 462 -17 12 -51 9 -64 -4z"/>
</g>
</svg>
