<?xml version="1.0" encoding="utf-8"?>
<!-- Generator: Adobe Illustrator 21.0.2, SVG Export Plug-In . SVG Version: 6.00 Build 0)  -->
<svg version="1.1" id="Layer_1" xmlns="http://www.w3.org/2000/svg" xmlns:xlink="http://www.w3.org/1999/xlink" x="0px" y="0px"
	 viewBox="0 0 100 100" style="enable-background:new 0 0 100 100;" xml:space="preserve">
<style type="text/css">
	.st0{fill:#1E4065;}
</style>
<path class="st0" d="M14.4,31.1H6.8c-1,0-1.8,0.8-1.8,1.8c0,1,0.8,1.8,1.8,1.8h7.6c1,0,1.8-0.8,1.8-1.8
	C16.1,31.9,15.3,31.1,14.4,31.1z M38,11V3.4c0-1-0.8-1.8-1.8-1.8s-1.8,0.8-1.8,1.8V11c0,1,0.8,1.8,1.8,1.8C37.2,12.8,38,12,38,11z
	 M22,18.7c0.7-0.7,0.7-1.8,0-2.5l-5.4-5.4c-0.7-0.7-1.8-0.7-2.5,0c-0.7,0.7-0.7,1.8,0,2.5l5.4,5.4c0.3,0.3,0.8,0.5,1.3,0.5
	C21.2,19.2,21.7,19,22,18.7z M58.3,13.3c0.7-0.7,0.7-1.8,0-2.5s-1.8-0.7-2.5,0l-5.4,5.4c-0.7,0.7-0.7,1.8,0,2.5
	c0.3,0.3,0.8,0.5,1.3,0.5s0.9-0.2,1.3-0.5L58.3,13.3z M5,64.8c0,6,4.9,10.8,10.8,10.8h59.3c11,0,19.9-8.9,19.9-19.9
	c0-10.7-8.5-19.5-19.2-19.9c-4.7-7.5-13-12.1-21.9-12.1c-1.4,0-2.8,0.1-4.2,0.4c-3-4.6-8-7.4-13.5-7.4c-8.9,0-16.1,7.2-16.1,16.1
	c0,3.6,1.2,7.1,3.4,9.9c-4.6,2.2-8,6.3-9.3,11.4C9,54.9,5,59.4,5,64.8z M46.1,25c-0.1,0-0.1,0-0.2,0.1c-0.7,0.2-1.4,0.5-2.1,0.8
	c-0.4,0.2-0.8,0.4-1.2,0.6c-0.3,0.1-0.6,0.3-0.8,0.4c-0.9,0.5-1.8,1-2.6,1.6c-0.1,0.1-0.2,0.1-0.2,0.2c-0.5,0.4-1,0.7-1.5,1.1
	c0,0-0.1,0.1-0.2,0.1c-0.9,0.7-1.7,1.5-2.4,2.3c-0.1,0.1-0.3,0.3-0.4,0.4c-0.3,0.4-0.7,0.8-1,1.2c-0.2,0.3-0.5,0.6-0.7,1
	c-0.3,0.5-0.7,1-1,1.5c-0.3,0.5-0.6,1-0.9,1.6c-0.1,0.3-0.3,0.5-0.4,0.8c-0.4,0.8-0.7,1.6-1,2.4c0,0,0,0,0,0c0,0,0,0,0,0
	c-0.7,0.1-1.5,0.2-2.2,0.4c-0.1,0-0.1,0-0.2,0c-2.2-2.3-3.5-5.4-3.5-8.6c0-6.9,5.6-12.6,12.6-12.6C40.1,20.3,43.7,22,46.1,25z
	 M8.5,64.8c0-4,3.2-7.2,7.2-7.3c0.9,0,1.6-0.6,1.7-1.5c0.9-5.3,4.7-9.5,9.7-10.9c0.5-0.2,1.1-0.3,1.6-0.4c0.1,0,0.2,0,0.4-0.1
	c0.6-0.1,1.1-0.1,1.7-0.1c0,0,0,0,0,0c0.8,0,1.4-0.5,1.7-1.3c0.3-0.9,0.6-1.7,0.9-2.5c0.1-0.2,0.2-0.4,0.2-0.6
	c0.3-0.7,0.7-1.4,1.1-2.1c0.2-0.3,0.3-0.5,0.5-0.8c0.3-0.5,0.6-0.9,1-1.3c0.3-0.4,0.7-0.9,1.1-1.3c0.3-0.3,0.6-0.6,0.9-0.9
	c0.3-0.3,0.6-0.6,1-0.9c0.5-0.4,0.9-0.8,1.4-1.2c0.4-0.3,0.7-0.5,1.1-0.8c0.4-0.2,0.8-0.5,1.2-0.7c0.4-0.2,0.9-0.5,1.3-0.7
	c0.6-0.3,1.1-0.5,1.7-0.8c0.2-0.1,0.4-0.2,0.7-0.3c0.8-0.3,1.7-0.5,2.6-0.7c1.6-0.4,3.2-0.5,4.8-0.5c8,0,15.4,4.3,19.4,11.2
	c0.3,0.5,0.9,0.9,1.5,0.9c0,0,0.2,0,0.3,0h0c9,0,16.4,7.3,16.4,16.4s-7.3,16.4-16.4,16.4H15.8C11.8,72.1,8.5,68.9,8.5,64.8z
	 M48.2,80.9l9.3,16.6c0.3,0.6,0.9,0.9,1.5,0.9c0.3,0,0.6-0.1,0.9-0.2c0.9-0.5,1.2-1.6,0.7-2.4l-9.3-16.6c-0.5-0.9-1.6-1.2-2.4-0.7
	C48.1,78.9,47.8,80,48.2,80.9z M32.7,80.9l9.3,16.6c0.3,0.6,0.9,0.9,1.5,0.9c0.3,0,0.6-0.1,0.9-0.2c0.9-0.5,1.2-1.6,0.7-2.4
	l-9.3-16.6c-0.5-0.9-1.6-1.2-2.4-0.7C32.5,78.9,32.2,80,32.7,80.9z M63.8,80.9l9.3,16.6c0.3,0.6,0.9,0.9,1.5,0.9
	c0.3,0,0.6-0.1,0.9-0.2c0.9-0.5,1.2-1.6,0.7-2.4l-9.3-16.6c-0.5-0.9-1.6-1.2-2.4-0.7C63.6,78.9,63.3,80,63.8,80.9z"/>
</svg>
