<svg xmlns="http://www.w3.org/2000/svg" viewBox="0 0 100 100"><path d="M14.57,31.56H7a1.76,1.76,0,0,0,0,3.52h7.53a1.76,1.76,0,0,0,0-3.52h0Zm23.49-20V4.05a1.76,1.76,0,1,0-3.51-.27,1.22,1.22,0,0,0,0,.27v7.54a1.76,1.76,0,0,0,3.51,0Zm-15.88,7.6a1.75,1.75,0,0,0,0-2.46l0,0-5.33-5.33a1.76,1.76,0,1,0-2.62,2.35.93.93,0,0,0,.14.14l5.32,5.32a1.77,1.77,0,0,0,1.25.52,1.74,1.74,0,0,0,1.24-.49Zm36.06-5.32a1.76,1.76,0,0,0-2.48-2.49l-5.33,5.33a1.75,1.75,0,0,0,0,2.46l0,0a1.75,1.75,0,0,0,1.24.52,1.77,1.77,0,0,0,1.25-.52ZM5.28,65.1A10.77,10.77,0,0,0,16,75.85H74.94a19.78,19.78,0,0,0,.74-39.54,25.86,25.86,0,0,0-21.78-12,25.33,25.33,0,0,0-4.17.35,16,16,0,0,0-27.3,16.7,17.73,17.73,0,0,0,1.3,1.82,17.13,17.13,0,0,0-9.25,11.31A10.8,10.8,0,0,0,5.28,65.1Zm40.8-39.59-.17.07c-.7.23-1.4.5-2.08.79-.41.18-.81.36-1.21.56l-.82.43A24.45,24.45,0,0,0,39.18,29l-.24.17c-.5.35-1,.73-1.47,1.13l-.15.13a24.22,24.22,0,0,0-2.42,2.33l-.39.42c-.35.39-.68.8-1,1.21s-.47.63-.69,1c-.34.49-.67,1-1,1.48a12.92,12.92,0,0,0-.88,1.56c-.14.26-.27.54-.4.81a25.49,25.49,0,0,0-1,2.35h0a17.82,17.82,0,0,0-2.17.35h-.16A12.5,12.5,0,1,1,45.36,24.7c.24.25.47.52.69.79ZM8.8,65.1a7.27,7.27,0,0,1,7.13-7.23,1.76,1.76,0,0,0,1.71-1.47A13.61,13.61,0,0,1,28.87,45.18h.37A11.54,11.54,0,0,1,30.9,45h0a1.78,1.78,0,0,0,1.66-1.26,22,22,0,0,1,.93-2.5c.08-.19.16-.38.25-.57a23.44,23.44,0,0,1,1.12-2.1c.16-.26.33-.51.5-.76a13.7,13.7,0,0,1,1-1.34c.37-.44.69-.85,1-1.26s.56-.61.86-.9.64-.62,1-.92.94-.79,1.44-1.16.72-.5,1.09-.75.77-.48,1.16-.7.85-.47,1.29-.69,1.14-.53,1.73-.75l.65-.26a23,23,0,0,1,2.55-.72A22,22,0,0,1,54,27.81,22.32,22.32,0,0,1,73.17,39a1.76,1.76,0,0,0,1.52.88H75A16.26,16.26,0,1,1,75,72.4H16a7.24,7.24,0,0,1-7.2-7.28ZM48.25,80.32l9.22,16.49a1.79,1.79,0,0,0,1.54.9,1.69,1.69,0,0,0,.85-.23,1.76,1.76,0,0,0,.69-2.38h0L51.32,78.6a1.76,1.76,0,0,0-3.07,1.72Zm-15.48,0L42,96.81a1.75,1.75,0,0,0,1.54.9,1.69,1.69,0,0,0,.85-.23,1.76,1.76,0,0,0,.69-2.38h0L35.84,78.6a1.76,1.76,0,0,0-3.07,1.72Zm31,0L73,96.81a1.79,1.79,0,0,0,1.54.9,1.73,1.73,0,0,0,.86-.23,1.75,1.75,0,0,0,.6-2.39L66.8,78.6a1.76,1.76,0,0,0-3.07,1.72Z"/><path d="M14.57,31.56H7a1.76,1.76,0,0,0,0,3.52h7.53a1.76,1.76,0,0,0,0-3.52h0Zm23.49-20V4.05a1.76,1.76,0,1,0-3.51-.27,1.22,1.22,0,0,0,0,.27v7.54a1.76,1.76,0,0,0,3.51,0Zm-15.88,7.6a1.75,1.75,0,0,0,0-2.46l0,0-5.33-5.33a1.76,1.76,0,1,0-2.62,2.35.93.93,0,0,0,.14.14l5.32,5.32a1.77,1.77,0,0,0,1.25.52,1.74,1.74,0,0,0,1.24-.49Zm36.06-5.32a1.76,1.76,0,0,0-2.48-2.49l-5.33,5.33a1.75,1.75,0,0,0,0,2.46l0,0a1.75,1.75,0,0,0,1.24.52,1.77,1.77,0,0,0,1.25-.52ZM5.28,65.1A10.77,10.77,0,0,0,16,75.85H74.94a19.78,19.78,0,0,0,.74-39.54,25.86,25.86,0,0,0-21.78-12,25.33,25.33,0,0,0-4.17.35,16,16,0,0,0-27.3,16.7,17.73,17.73,0,0,0,1.3,1.82,17.13,17.13,0,0,0-9.25,11.31A10.8,10.8,0,0,0,5.28,65.1Zm40.8-39.59-.17.07c-.7.23-1.4.5-2.08.79-.41.18-.81.36-1.21.56l-.82.43A24.45,24.45,0,0,0,39.18,29l-.24.17c-.5.35-1,.73-1.47,1.13l-.15.13a24.22,24.22,0,0,0-2.42,2.33l-.39.42c-.35.39-.68.8-1,1.21s-.47.63-.69,1c-.34.49-.67,1-1,1.48a12.92,12.92,0,0,0-.88,1.56c-.14.26-.27.54-.4.81a25.49,25.49,0,0,0-1,2.35h0a17.82,17.82,0,0,0-2.17.35h-.16A12.5,12.5,0,1,1,45.36,24.7c.24.25.47.52.69.79ZM8.8,65.1a7.27,7.27,0,0,1,7.13-7.23,1.76,1.76,0,0,0,1.71-1.47A13.61,13.61,0,0,1,28.87,45.18h.37A11.54,11.54,0,0,1,30.9,45h0a1.78,1.78,0,0,0,1.66-1.26,22,22,0,0,1,.93-2.5c.08-.19.16-.38.25-.57a23.44,23.44,0,0,1,1.12-2.1c.16-.26.33-.51.5-.76a13.7,13.7,0,0,1,1-1.34c.37-.44.69-.85,1-1.26s.56-.61.86-.9.64-.62,1-.92.94-.79,1.44-1.16.72-.5,1.09-.75.77-.48,1.16-.7.85-.47,1.29-.69,1.14-.53,1.73-.75l.65-.26a23,23,0,0,1,2.55-.72A22,22,0,0,1,54,27.81,22.32,22.32,0,0,1,73.17,39a1.76,1.76,0,0,0,1.52.88H75A16.26,16.26,0,1,1,75,72.4H16a7.24,7.24,0,0,1-7.2-7.28ZM48.25,80.32l9.22,16.49a1.79,1.79,0,0,0,1.54.9,1.69,1.69,0,0,0,.85-.23,1.76,1.76,0,0,0,.69-2.38h0L51.32,78.6a1.76,1.76,0,0,0-3.07,1.72Zm-15.48,0L42,96.81a1.75,1.75,0,0,0,1.54.9,1.69,1.69,0,0,0,.85-.23,1.76,1.76,0,0,0,.69-2.38h0L35.84,78.6a1.76,1.76,0,0,0-3.07,1.72Zm31,0L73,96.81a1.79,1.79,0,0,0,1.54.9,1.73,1.73,0,0,0,.86-.23,1.75,1.75,0,0,0,.6-2.39L66.8,78.6a1.76,1.76,0,0,0-3.07,1.72Z"/><path fill="#3f51b5" d="M14.57,31.56H7a1.76,1.76,0,0,0,0,3.52h7.53a1.76,1.76,0,0,0,0-3.52h0Zm23.49-20V4.05a1.76,1.76,0,1,0-3.51-.27,1.22,1.22,0,0,0,0,.27v7.54a1.76,1.76,0,0,0,3.51,0Zm-15.88,7.6a1.75,1.75,0,0,0,0-2.46l0,0-5.33-5.33a1.76,1.76,0,1,0-2.62,2.35.93.93,0,0,0,.14.14l5.32,5.32a1.77,1.77,0,0,0,1.25.52,1.74,1.74,0,0,0,1.24-.49Zm36.06-5.32a1.76,1.76,0,0,0-2.48-2.49l-5.33,5.33a1.75,1.75,0,0,0,0,2.46l0,0a1.75,1.75,0,0,0,1.24.52,1.77,1.77,0,0,0,1.25-.52ZM5.28,65.1A10.77,10.77,0,0,0,16,75.85H74.94a19.78,19.78,0,0,0,.74-39.54,25.86,25.86,0,0,0-21.78-12,25.33,25.33,0,0,0-4.17.35,16,16,0,0,0-27.3,16.7,17.73,17.73,0,0,0,1.3,1.82,17.13,17.13,0,0,0-9.25,11.31A10.8,10.8,0,0,0,5.28,65.1Zm40.8-39.59-.17.07c-.7.23-1.4.5-2.08.79-.41.18-.81.36-1.21.56l-.82.43A24.45,24.45,0,0,0,39.18,29l-.24.17c-.5.35-1,.73-1.47,1.13l-.15.13a24.22,24.22,0,0,0-2.42,2.33l-.39.42c-.35.39-.68.8-1,1.21s-.47.63-.69,1c-.34.49-.67,1-1,1.48a12.92,12.92,0,0,0-.88,1.56c-.14.26-.27.54-.4.81a25.49,25.49,0,0,0-1,2.35h0a17.82,17.82,0,0,0-2.17.35h-.16A12.5,12.5,0,1,1,45.36,24.7c.24.25.47.52.69.79ZM8.8,65.1a7.27,7.27,0,0,1,7.13-7.23,1.76,1.76,0,0,0,1.71-1.47A13.61,13.61,0,0,1,28.87,45.18h.37A11.54,11.54,0,0,1,30.9,45h0a1.78,1.78,0,0,0,1.66-1.26,22,22,0,0,1,.93-2.5c.08-.19.16-.38.25-.57a23.44,23.44,0,0,1,1.12-2.1c.16-.26.33-.51.5-.76a13.7,13.7,0,0,1,1-1.34c.37-.44.69-.85,1-1.26s.56-.61.86-.9.64-.62,1-.92.94-.79,1.44-1.16.72-.5,1.09-.75.77-.48,1.16-.7.85-.47,1.29-.69,1.14-.53,1.73-.75l.65-.26a23,23,0,0,1,2.55-.72A22,22,0,0,1,54,27.81,22.32,22.32,0,0,1,73.17,39a1.76,1.76,0,0,0,1.52.88H75A16.26,16.26,0,1,1,75,72.4H16a7.24,7.24,0,0,1-7.2-7.28ZM48.25,80.32l9.22,16.49a1.79,1.79,0,0,0,1.54.9,1.69,1.69,0,0,0,.85-.23,1.76,1.76,0,0,0,.69-2.38h0L51.32,78.6a1.76,1.76,0,0,0-3.07,1.72Zm-15.48,0L42,96.81a1.75,1.75,0,0,0,1.54.9,1.69,1.69,0,0,0,.85-.23,1.76,1.76,0,0,0,.69-2.38h0L35.84,78.6a1.76,1.76,0,0,0-3.07,1.72Zm31,0L73,96.81a1.79,1.79,0,0,0,1.54.9,1.73,1.73,0,0,0,.86-.23,1.75,1.75,0,0,0,.6-2.39L66.8,78.6a1.76,1.76,0,0,0-3.07,1.72Z"/></svg>