<?xml version="1.0" encoding="UTF-8"?>
<svg width="1920px" height="1115px" viewBox="0 0 1920 1115" version="1.1" xmlns="http://www.w3.org/2000/svg" xmlns:xlink="http://www.w3.org/1999/xlink">
    <!-- Generator: Sketch 52 (66869) - http://www.bohemiancoding.com/sketch -->
    <title>Path</title>
    <desc>Created with Sketch.</desc>
    <g id="Page-1" stroke="none" stroke-width="1" fill="none" fill-rule="evenodd">
        <g id="Artboard" fill="#FFFFFF" fill-rule="nonzero">
            <path d="M521.689453,-5 L0,-5 L0,1115 L1920,1115 L1920,1065.94378 C1837.83984,1065.07307 1770.25391,1067.8726 1717.24219,1074.34237 C1637.72461,1084.04702 1517.09766,1103.25134 1473.7793,1103.25134 C1430.46094,1103.25134 1374.38086,1118.08066 1274.40234,1100.25268 C1207.75,1088.36736 1161.01367,1071.51746 1134.19336,1049.70298 C1104.12305,1028.60693 1079.72852,1003.45019 1061.00977,974.232764 C1032.93164,930.406627 1006.73438,854.216031 998.15625,799.80087 C989.578125,745.38571 980.513672,642.388722 948.427734,569.343206 C916.341797,496.297691 891.632812,438.175201 815.208984,374.623494 C738.785156,311.071787 707.449219,292.945114 637.810547,206.458333 C568.171875,119.971553 555.111328,85.8442102 538.400391,50.7622155 C527.259766,27.3742191 521.689453,8.78681392 521.689453,-5 Z" id="Path"></path>
        </g>
    </g>
</svg>