<svg id="e98b9e1c-29c4-416e-aee9-e58958576437" data-name="Layer 1" xmlns="http://www.w3.org/2000/svg" viewBox="0 0 800 700.08"><path d="M795.11,616.78c-15,64.22-68,115.63-132.32,129.22-92,19.53-174.38-33.91-202.17-113-5.78-16.09,6.87-33,23.89-33h52.81c9.06,0,18.12,4.07,22.66,11.88a74.89,74.89,0,1,0,65-111.89H443a197.57,197.57,0,0,0-62.18-100H625c110.12,0,196.87,102.34,170.12,216.73Z" transform="translate(0 -49.96)" style="fill:#87c9eb;opacity:0.400000005960465;isolation:isolate"/><path d="M244.93,400.05H25a25,25,0,0,0-25,25v50a25,25,0,0,0,25,25H247.28c24.84,0,48.14,17,52.2,41.56a50.09,50.09,0,0,1-96.87,24.22c-3.3-9.84-13.46-15.78-23.77-15.78h-51.3c-15.31,0-27.67,13.75-24.85,28.75a150,150,0,0,0,296-48.44C389.2,454.74,321,400.05,244.93,400.05ZM696.6,167.68C684.72,111.1,638.93,65.31,582.37,53.43A150.34,150.34,0,0,0,403.48,168.34c-.23,1-.44,2.06-.64,3.09-3,15,9.53,28.59,24.68,28.59h51.25c10.47,0,20.47-5.93,23.75-15.78a50,50,0,0,1,96.88,24.22c-4.1,24.55-27.19,41.59-52.19,41.59H25a25,25,0,0,0-25,25v50a25,25,0,0,0,25,25H550A150.3,150.3,0,0,0,696.6,167.68Z" transform="translate(0 -49.96)" style="fill:#87c9eb"/></svg>